<?xml version="1.0" encoding="utf-8"?>
<!-- Generator: Adobe Illustrator 23.0.5, SVG Export Plug-In . SVG Version: 6.00 Build 0)  -->
<svg version="1.1" id="Layer_1" xmlns="http://www.w3.org/2000/svg" xmlns:xlink="http://www.w3.org/1999/xlink" x="0px" y="0px"
	 viewBox="0 0 349.67 267.41" style="enable-background:new 0 0 349.67 267.41;" xml:space="preserve">
<style type="text/css">
	.st0{clip-path:url(#SVGID_1_);}
	.st1{fill:#2E67B1;}
	.st2{fill:#98CB67;}
	.st3{fill-rule:evenodd;clip-rule:evenodd;fill:#DFE6F4;}
	.st4{fill-rule:evenodd;clip-rule:evenodd;fill:#0C2D34;}
	.st5{fill-rule:evenodd;clip-rule:evenodd;fill:#1A7255;}
	.st6{fill-rule:evenodd;clip-rule:evenodd;fill:#A5C76A;}
	.st7{fill-rule:evenodd;clip-rule:evenodd;fill:#5F9750;}
	.st8{fill-rule:evenodd;clip-rule:evenodd;fill:#4A8F76;}
	.st9{fill-rule:evenodd;clip-rule:evenodd;fill:#F7B242;}
	.st10{fill-rule:evenodd;clip-rule:evenodd;fill:#C48036;}
	.st11{fill-rule:evenodd;clip-rule:evenodd;fill:#E03C83;}
	.st12{fill-rule:evenodd;clip-rule:evenodd;fill:#B73470;}
	.st13{fill-rule:evenodd;clip-rule:evenodd;fill:#0A0A13;}
	.st14{fill-rule:evenodd;clip-rule:evenodd;fill:#EE8922;}
	.st15{fill-rule:evenodd;clip-rule:evenodd;fill:#F8BF13;}
	.st16{fill-rule:evenodd;clip-rule:evenodd;fill:#101537;}
	.st17{fill-rule:evenodd;clip-rule:evenodd;fill:#E74D8F;}
	.st18{fill-rule:evenodd;clip-rule:evenodd;fill:#2E67B1;}
	.st19{fill-rule:evenodd;clip-rule:evenodd;fill:#FFFFFF;}
	.st20{fill-rule:evenodd;clip-rule:evenodd;fill:#9FB2D7;}
	.st21{fill-rule:evenodd;clip-rule:evenodd;fill:#BFCCE8;}
	.st22{fill-rule:evenodd;clip-rule:evenodd;fill:url(#SVGID_3_);}
	.st23{fill-rule:evenodd;clip-rule:evenodd;fill:#2F3459;}
	.st24{fill-rule:evenodd;clip-rule:evenodd;fill:#F2F3F0;}
	.st25{fill-rule:evenodd;clip-rule:evenodd;fill:#98CB67;}
	.st26{fill-rule:evenodd;clip-rule:evenodd;fill:#E3E0E7;}
	.st27{fill:#231F20;}
	.st28{fill-rule:evenodd;clip-rule:evenodd;fill:#2A4D3C;}
	.st29{fill-rule:evenodd;clip-rule:evenodd;fill:#3C405F;}
	.st30{fill-rule:evenodd;clip-rule:evenodd;fill:#F08D70;}
	.st31{fill-rule:evenodd;clip-rule:evenodd;fill:#204285;}
	.st32{fill-rule:evenodd;clip-rule:evenodd;fill:#152850;}
	.st33{fill-rule:evenodd;clip-rule:evenodd;fill:#110E20;}
	.st34{fill-rule:evenodd;clip-rule:evenodd;fill:#5E82BB;}
	.st35{fill-rule:evenodd;clip-rule:evenodd;fill:#005254;}
	.st36{fill-rule:evenodd;clip-rule:evenodd;fill:#0B4E89;}
	.st37{fill-rule:evenodd;clip-rule:evenodd;fill:#F3AB81;}
	.st38{fill-rule:evenodd;clip-rule:evenodd;fill:#ED8F73;}
	.st39{fill-rule:evenodd;clip-rule:evenodd;fill:#699ED4;}
	.st40{fill-rule:evenodd;clip-rule:evenodd;fill:#545765;}
	.st41{fill-rule:evenodd;clip-rule:evenodd;fill:#F5AF1A;}
	.st42{fill:#FFFFFF;}
	.st43{fill-rule:evenodd;clip-rule:evenodd;fill:url(#SVGID_4_);}
	.st44{clip-path:url(#SVGID_5_);}
</style>
<g>
	<g>
		<path class="st1" d="M3.35,10.93c0.06-0.43,0.23-0.75,0.53-0.94c0.3-0.19,0.59-0.29,0.86-0.29c3.71,0,7.19-0.12,10.44-0.37
			c3.24-0.24,5.8-0.37,7.65-0.37c4.64,0,8.53,0.46,11.66,1.39c3.14,0.92,5.68,2.36,7.61,4.32s3.32,4.49,4.13,7.59
			c0.82,3.1,1.23,6.82,1.23,11.17c0,4.4-0.45,8.71-1.35,12.92s-2.47,7.95-4.71,11.21c-2.24,3.26-5.25,5.89-9.04,7.87
			c-3.8,1.98-8.59,2.98-14.37,2.98c-2.67,0-5.12-0.06-7.33-0.16c-2.21-0.11-4.1-0.44-5.69-0.98c-1.58-0.54-2.81-1.36-3.68-2.45
			C0.43,63.75,0,62.25,0,60.35c0-0.71,0.04-1.77,0.12-3.18c0.08-1.41,0.19-3.1,0.33-5.05c0.14-1.96,0.3-4.12,0.49-6.48
			c0.19-2.37,0.39-4.85,0.61-7.46c0.44-5.38,0.78-9.68,1.03-12.88c0.25-3.21,0.41-5.72,0.49-7.54c0.09-1.82,0.14-3.2,0.17-4.12
			C3.26,12.7,3.3,11.8,3.35,10.93z M18.58,55.54c3.06,0,5.5-0.65,7.33-1.96c1.83-1.3,3.23-2.96,4.22-4.97
			c0.98-2.01,1.63-4.21,1.97-6.61c0.33-2.39,0.49-4.65,0.49-6.77c0-2.28-0.15-4.28-0.45-5.99c-0.3-1.71-0.82-3.14-1.56-4.28
			c-0.73-1.14-1.76-2-3.07-2.57c-1.31-0.57-2.94-0.86-4.91-0.86c-0.6,0-1.37,0.03-2.29,0.08c-0.93,0.06-2.05,0.14-3.36,0.25
			c-0.11,2.01-0.25,4.39-0.41,7.13c-0.17,2.75-0.34,5.63-0.53,8.64c-0.19,3.02-0.4,6.06-0.61,9.14c-0.22,3.07-0.44,5.91-0.65,8.52
			c0.81,0.11,1.55,0.18,2.2,0.2C17.6,55.52,18.14,55.54,18.58,55.54z"/>
		<path class="st1" d="M72.6,68.42c-2.4,0-4.79-0.3-7.16-0.9c-2.37-0.6-4.5-1.63-6.38-3.1c-1.89-1.47-3.43-3.43-4.63-5.87
			c-1.2-2.45-1.8-5.52-1.8-9.21c0-1.36,0.11-2.99,0.33-4.89c0.22-1.9,0.64-3.86,1.27-5.87c0.63-2.01,1.5-4.01,2.62-5.99
			s2.58-3.77,4.38-5.34c1.81-1.58,3.98-2.85,6.55-3.83c2.56-0.98,5.62-1.47,9.17-1.47c2.83,0,5.24,0.33,7.2,0.98
			c1.97,0.65,3.54,1.54,4.75,2.65c1.2,1.11,2.07,2.41,2.62,3.87c0.55,1.47,0.82,3.05,0.82,4.73c0,2.5-0.51,4.62-1.52,6.36
			c-1.01,1.74-2.32,3.19-3.92,4.36c-1.61,1.17-3.4,2.08-5.36,2.73c-1.97,0.65-3.9,1.15-5.82,1.51c-1.91,0.35-3.67,0.57-5.28,0.65
			c-1.61,0.08-2.85,0.12-3.72,0.12c0,1.03,0.15,2.05,0.45,3.06c0.3,1.01,0.75,1.89,1.35,2.65c0.6,0.76,1.39,1.39,2.37,1.88
			c0.99,0.49,2.18,0.73,3.6,0.73s2.52-0.23,3.32-0.69c0.79-0.46,1.43-0.98,1.92-1.55c0.49-0.57,0.91-1.09,1.27-1.55
			c0.35-0.46,0.83-0.69,1.43-0.69c0.27,0,0.75,0.07,1.43,0.21c0.68,0.14,1.38,0.42,2.08,0.86c0.71,0.43,1.34,1.03,1.89,1.79
			c0.55,0.76,0.82,1.74,0.82,2.94c0,1.58-0.49,2.94-1.47,4.08c-0.99,1.14-2.25,2.07-3.81,2.77c-1.55,0.71-3.28,1.22-5.2,1.55
			C76.26,68.26,74.41,68.42,72.6,68.42z M74.16,32.78c-1.2,0-2.22,0.34-3.07,1.02c-0.85,0.68-1.55,1.54-2.12,2.57
			c-0.57,1.04-1.01,2.18-1.31,3.43c-0.3,1.25-0.53,2.45-0.7,3.59c3.38-0.05,6.13-0.62,8.23-1.71c2.1-1.09,3.15-2.64,3.15-4.65
			c0-1.09-0.34-2.06-1.02-2.94C76.62,33.22,75.58,32.78,74.16,32.78z"/>
		<path class="st1" d="M125.15,60.43c0-1.19,0.09-2.76,0.29-4.69c0.19-1.93,0.38-3.97,0.57-6.12c0.19-2.15,0.38-4.23,0.57-6.24
			c0.19-2.01,0.29-3.7,0.29-5.06c0-1.41-0.34-2.68-1.03-3.79c-0.68-1.11-2.01-1.67-3.97-1.67c-1.91,0-3.49,0.46-4.74,1.38
			c-1.26,0.93-2.3,2.61-3.15,5.06c-0.85,2.45-1.55,5.82-2.09,10.11c-0.55,4.29-1.06,9.81-1.55,16.55c-0.05,0.65-0.19,1.09-0.41,1.31
			c-0.21,0.22-0.68,0.33-1.39,0.33h-2.95c-1.69,0-3.07-0.18-4.13-0.53c-1.07-0.35-1.91-0.86-2.54-1.51
			c-0.63-0.65-1.07-1.46-1.31-2.41c-0.25-0.95-0.37-2.05-0.37-3.3c0-0.81,0.04-1.97,0.12-3.46c0.09-1.5,0.23-3.56,0.45-6.2
			c0.21-2.63,0.47-5.98,0.78-10.03c0.29-4.05,0.67-9.07,1.1-15.04c0.06-1.19,0.19-1.9,0.41-2.12c0.16-0.16,0.6-0.25,1.31-0.25h3.2
			c1.63,0,2.98,0.19,4.05,0.57c1.07,0.38,1.93,0.89,2.58,1.51s1.12,1.36,1.39,2.2c0.27,0.85,0.43,1.7,0.49,2.57
			c1.69-2.88,3.62-4.88,5.81-6c2.18-1.11,4.91-1.67,8.19-1.67c2.29,0,4.28,0.25,5.98,0.74c1.69,0.49,3.1,1.32,4.22,2.49
			c1.12,1.17,1.95,2.69,2.5,4.57c0.54,1.88,0.81,4.2,0.81,6.97c0,0.87-0.05,2.12-0.16,3.75c-0.11,1.63-0.25,3.41-0.41,5.34
			c-0.16,1.93-0.34,3.94-0.53,6.04c-0.19,2.09-0.37,4.03-0.53,5.83c-0.17,1.79-0.3,3.37-0.41,4.73c-0.11,1.36-0.16,2.26-0.16,2.69
			c0,1.2-0.14,1.92-0.41,2.16c-0.27,0.25-0.87,0.37-1.8,0.37h-2.62c-1.75,0-3.17-0.16-4.26-0.49c-1.09-0.33-1.94-0.79-2.54-1.39
			c-0.6-0.6-1.03-1.35-1.27-2.24C125.27,62.59,125.15,61.57,125.15,60.43z"/>
		<path class="st1" d="M157.4,68.34c-3.38,0-5.81-0.9-7.28-2.69c-1.48-1.79-2.21-4.75-2.21-8.89c0-0.65,0.04-1.47,0.12-2.45
			c0.09-0.98,0.19-2.24,0.33-3.79c0.14-1.55,0.31-3.46,0.53-5.75c0.22-2.28,0.45-5.06,0.7-8.32c0.25-3.26,0.51-7.09,0.82-11.5
			c0.3-4.4,0.61-9.51,0.94-15.33c0.05-1.19,0.19-1.9,0.41-2.12c0.17-0.16,0.6-0.24,1.31-0.24h3.19c1.64,0,3,0.19,4.1,0.57
			c1.09,0.38,1.96,0.9,2.62,1.55c0.65,0.65,1.12,1.4,1.39,2.24c0.27,0.84,0.41,1.73,0.41,2.65c0,1.09-0.07,2.65-0.21,4.69
			c-0.13,2.04-0.31,4.34-0.53,6.89c-0.22,2.56-0.44,5.22-0.66,7.99c-0.22,2.77-0.43,5.42-0.65,7.95s-0.4,4.8-0.53,6.81
			s-0.21,3.53-0.21,4.57c0,1.41,0.26,2.42,0.78,3.02c0.52,0.6,1.08,1.02,1.68,1.26c0.6,0.25,1.16,0.41,1.68,0.49
			c0.52,0.08,0.78,0.26,0.78,0.53c0,1.2-0.14,2.38-0.41,3.55c-0.27,1.17-0.77,2.23-1.47,3.18c-0.71,0.95-1.68,1.71-2.9,2.28
			C160.88,68.05,159.31,68.34,157.4,68.34z"/>
		<path class="st1" d="M181.05,67.6c-1.69,0-3.06-0.18-4.13-0.53c-1.07-0.35-1.91-0.86-2.54-1.51c-0.63-0.65-1.07-1.46-1.31-2.41
			c-0.24-0.95-0.37-2.05-0.37-3.3c0-0.81,0.04-1.97,0.13-3.46c0.08-1.5,0.23-3.56,0.45-6.2c0.22-2.63,0.48-5.98,0.78-10.03
			c0.3-4.05,0.67-9.07,1.11-15.04c0.11-1.19,0.23-1.89,0.37-2.08c0.13-0.19,0.59-0.29,1.35-0.29h3.19c1.69,0,3.07,0.16,4.14,0.49
			c1.06,0.33,1.91,0.81,2.53,1.47c0.63,0.65,1.07,1.44,1.31,2.37s0.37,1.96,0.37,3.1c0,0.81-0.05,2.04-0.16,3.67
			c-0.11,1.63-0.26,3.85-0.45,6.64c-0.19,2.8-0.45,6.28-0.78,10.44c-0.33,4.16-0.73,9.17-1.23,15.04c-0.05,0.65-0.19,1.09-0.41,1.31
			c-0.22,0.22-0.69,0.33-1.39,0.33H181.05z M181.3,17.45c-0.38,0-0.81-0.14-1.27-0.41c-0.47-0.27-0.91-0.61-1.35-1.02
			c-0.44-0.41-0.81-0.84-1.11-1.31c-0.3-0.46-0.45-0.86-0.45-1.18c0-0.11,0.27-0.57,0.82-1.39c0.54-0.81,1.23-1.82,2.05-3.02
			c0.82-1.19,1.72-2.5,2.7-3.92c0.99-1.41,1.91-2.74,2.78-4c0.33-0.49,0.6-0.82,0.82-0.98c0.22-0.16,0.57-0.25,1.07-0.25
			c0.65,0,1.5,0.17,2.54,0.49c1.03,0.33,2.04,0.73,3.02,1.22c0.99,0.49,1.83,1.02,2.54,1.59c0.71,0.57,1.07,1.1,1.07,1.59
			c0,0.38-0.31,0.95-0.94,1.71c-0.63,0.76-1.43,1.61-2.42,2.53c-0.98,0.93-2.07,1.87-3.27,2.85c-1.21,0.98-2.38,1.87-3.52,2.69
			c-1.15,0.82-2.16,1.48-3.07,2C182.4,17.19,181.74,17.45,181.3,17.45z"/>
		<path class="st1" d="M223.54,60.43c0-1.19,0.09-2.76,0.29-4.69c0.19-1.93,0.38-3.97,0.57-6.12c0.19-2.15,0.38-4.23,0.57-6.24
			c0.19-2.01,0.29-3.7,0.29-5.06c0-1.41-0.34-2.68-1.03-3.79c-0.68-1.11-2.01-1.67-3.97-1.67c-1.91,0-3.49,0.46-4.74,1.38
			c-1.26,0.93-2.3,2.61-3.15,5.06c-0.85,2.45-1.55,5.82-2.09,10.11c-0.55,4.29-1.06,9.81-1.55,16.55c-0.05,0.65-0.19,1.09-0.41,1.31
			c-0.21,0.22-0.68,0.33-1.39,0.33h-2.95c-1.69,0-3.07-0.18-4.13-0.53c-1.07-0.35-1.91-0.86-2.54-1.51
			c-0.63-0.65-1.07-1.46-1.31-2.41c-0.25-0.95-0.37-2.05-0.37-3.3c0-0.81,0.04-1.97,0.12-3.46c0.09-1.5,0.23-3.56,0.45-6.2
			c0.21-2.63,0.47-5.98,0.78-10.03c0.29-4.05,0.67-9.07,1.1-15.04c0.06-1.19,0.19-1.9,0.41-2.12c0.16-0.16,0.6-0.25,1.31-0.25h3.2
			c1.63,0,2.98,0.19,4.05,0.57c1.07,0.38,1.93,0.89,2.58,1.51s1.12,1.36,1.39,2.2c0.27,0.85,0.43,1.7,0.49,2.57
			c1.69-2.88,3.62-4.88,5.81-6c2.18-1.11,4.91-1.67,8.19-1.67c2.29,0,4.28,0.25,5.98,0.74c1.69,0.49,3.1,1.32,4.22,2.49
			c1.12,1.17,1.95,2.69,2.5,4.57c0.54,1.88,0.81,4.2,0.81,6.97c0,0.87-0.05,2.12-0.16,3.75c-0.11,1.63-0.25,3.41-0.41,5.34
			c-0.16,1.93-0.34,3.94-0.53,6.04c-0.19,2.09-0.37,4.03-0.53,5.83c-0.17,1.79-0.3,3.37-0.41,4.73c-0.11,1.36-0.16,2.26-0.16,2.69
			c0,1.2-0.14,1.92-0.41,2.16c-0.27,0.25-0.87,0.37-1.8,0.37h-2.62c-1.75,0-3.17-0.16-4.26-0.49c-1.09-0.33-1.94-0.79-2.54-1.39
			c-0.6-0.6-1.03-1.35-1.27-2.24C223.66,62.59,223.54,61.57,223.54,60.43z"/>
		<path class="st1" d="M265.2,68.42c-2.4,0-4.79-0.3-7.16-0.9c-2.37-0.6-4.5-1.63-6.38-3.1c-1.89-1.47-3.43-3.43-4.63-5.87
			c-1.2-2.45-1.8-5.52-1.8-9.21c0-1.36,0.11-2.99,0.33-4.89c0.22-1.9,0.64-3.86,1.27-5.87c0.63-2.01,1.5-4.01,2.62-5.99
			c1.12-1.98,2.58-3.77,4.38-5.34c1.81-1.58,3.98-2.85,6.55-3.83c2.56-0.98,5.62-1.47,9.17-1.47c2.83,0,5.24,0.33,7.2,0.98
			c1.97,0.65,3.54,1.54,4.75,2.65c1.2,1.11,2.07,2.41,2.62,3.87c0.55,1.47,0.82,3.05,0.82,4.73c0,2.5-0.51,4.62-1.52,6.36
			c-1.01,1.74-2.32,3.19-3.92,4.36c-1.61,1.17-3.4,2.08-5.36,2.73c-1.97,0.65-3.9,1.15-5.82,1.51c-1.91,0.35-3.67,0.57-5.28,0.65
			c-1.61,0.08-2.85,0.12-3.72,0.12c0,1.03,0.15,2.05,0.45,3.06c0.3,1.01,0.75,1.89,1.35,2.65c0.6,0.76,1.39,1.39,2.37,1.88
			c0.99,0.49,2.18,0.73,3.6,0.73c1.42,0,2.52-0.23,3.32-0.69c0.79-0.46,1.43-0.98,1.92-1.55c0.49-0.57,0.91-1.09,1.27-1.55
			c0.35-0.46,0.83-0.69,1.43-0.69c0.27,0,0.75,0.07,1.43,0.21c0.68,0.14,1.38,0.42,2.08,0.86c0.71,0.43,1.34,1.03,1.89,1.79
			c0.55,0.76,0.82,1.74,0.82,2.94c0,1.58-0.49,2.94-1.47,4.08c-0.99,1.14-2.25,2.07-3.81,2.77c-1.55,0.71-3.28,1.22-5.2,1.55
			C268.85,68.26,267,68.42,265.2,68.42z M266.76,32.78c-1.2,0-2.22,0.34-3.07,1.02c-0.85,0.68-1.55,1.54-2.12,2.57
			c-0.57,1.04-1.01,2.18-1.31,3.43c-0.3,1.25-0.53,2.45-0.7,3.59c3.38-0.05,6.13-0.62,8.23-1.71c2.1-1.09,3.15-2.64,3.15-4.65
			c0-1.09-0.34-2.06-1.02-2.94C269.22,33.22,268.18,32.78,266.76,32.78z"/>
		<path class="st1" d="M314.96,76.49c-4.42,0-8.27-0.65-11.54-1.96c-3.28-1.3-6-3.14-8.15-5.5c-2.16-2.37-3.76-5.22-4.83-8.56
			c-1.07-3.34-1.6-7.03-1.6-11.05c0-4.57,0.69-8.84,2.05-12.8c1.36-3.97,3.45-7.42,6.26-10.36c2.8-2.94,6.34-5.23,10.6-6.89
			c4.26-1.66,9.25-2.49,14.98-2.49c5.24,0,9.59,0.68,13.06,2.04c3.46,1.36,6.21,3.17,8.27,5.42c2.04,2.26,3.49,4.84,4.34,7.75
			c0.85,2.91,1.27,5.91,1.27,9.01c0,2.94-0.34,5.67-1.02,8.2c-0.69,2.53-1.73,4.73-3.15,6.6c-1.42,1.88-3.24,3.34-5.45,4.4
			c-2.2,1.06-4.87,1.59-7.98,1.59c-1.25,0-2.44-0.1-3.56-0.29c-1.12-0.19-2.12-0.48-2.99-0.86c-0.87-0.38-1.55-0.88-2.04-1.51
			c-0.49-0.62-0.73-1.35-0.73-2.16c-1.04,1.3-2.24,2.42-3.6,3.34c-1.37,0.93-3.19,1.39-5.48,1.39c-2.9,0-5.19-0.99-6.88-2.98
			s-2.54-5.34-2.54-10.07c0-5.93,1.29-10.49,3.85-13.7c2.56-3.21,6.08-4.81,10.56-4.81c2.07,0,3.6,0.37,4.58,1.1
			c0.99,0.73,1.69,1.94,2.13,3.63c0-0.33,0.04-0.74,0.12-1.22c0.09-0.49,0.18-0.95,0.29-1.39c0.11-0.43,0.25-0.8,0.41-1.1
			c0.16-0.3,0.35-0.45,0.57-0.45h2.54c1.69,0,2.94,0.34,3.76,1.02c0.82,0.68,1.23,1.65,1.23,2.9c0,0.65-0.11,1.7-0.33,3.14
			s-0.45,3.01-0.69,4.69c-0.25,1.69-0.47,3.34-0.66,4.97c-0.19,1.63-0.29,2.96-0.29,4c0,0.22,0.01,0.5,0.04,0.86
			c0.03,0.35,0.13,0.71,0.29,1.06c0.17,0.36,0.41,0.65,0.74,0.9c0.33,0.25,0.79,0.37,1.39,0.37c0.93,0,1.75-0.34,2.46-1.02
			c0.71-0.68,1.29-1.59,1.76-2.73c0.46-1.14,0.81-2.45,1.02-3.91c0.22-1.47,0.33-2.99,0.33-4.57c0-2.56-0.33-4.88-0.99-6.97
			c-0.65-2.09-1.69-3.89-3.11-5.38c-1.42-1.49-3.27-2.65-5.56-3.46c-2.3-0.82-5.11-1.22-8.43-1.22c-4.31,0-7.97,0.67-10.97,2
			c-3,1.33-5.43,3.11-7.28,5.34c-1.86,2.23-3.2,4.78-4.01,7.67c-0.82,2.88-1.23,5.87-1.23,8.97c0,6.36,1.56,11.02,4.67,13.98
			c3.11,2.97,7.33,4.45,12.68,4.45c1.69,0,3.1-0.12,4.22-0.37s2.06-0.51,2.82-0.82c0.77-0.3,1.41-0.57,1.93-0.81
			c0.52-0.25,1.05-0.37,1.59-0.37c0.44,0,0.77,0.12,0.99,0.37c0.22,0.24,0.33,0.72,0.33,1.43c0,0.33-0.05,0.96-0.17,1.91
			c-0.11,0.95-0.43,1.92-0.98,2.9c-0.27,0.49-0.65,1.01-1.15,1.55c-0.49,0.54-1.19,1.02-2.08,1.43c-0.91,0.41-2.05,0.75-3.44,1.02
			C318.77,76.36,317.04,76.49,314.96,76.49z M320.53,37.6c-1.64,0-2.89,0.53-3.76,1.59c-0.88,1.06-1.52,2.24-1.93,3.55
			c-0.41,1.31-0.66,2.56-0.74,3.75c-0.08,1.19-0.12,1.93-0.12,2.2c0,2.07,0.3,3.55,0.9,4.45c0.6,0.9,1.53,1.34,2.78,1.34
			c1.2,0,2.22-0.37,3.07-1.1c0.84-0.73,1.54-1.67,2.08-2.81c0.55-1.14,0.93-2.39,1.15-3.75c0.22-1.36,0.33-2.63,0.33-3.83
			c0-1.8-0.27-3.14-0.82-4.03C322.93,38.04,321.95,37.6,320.53,37.6z"/>
	</g>
	<g>
		<path class="st1" d="M211.53,144.14h-17.28c-1.83-11.66-11.78-20.52-23.6-21.05c-0.32-0.03-0.66-0.03-0.99-0.03
			c-0.38,0-0.76,0.02-1.14,0.03c-11.82,0.53-21.77,9.38-23.6,21.05h-17.3c-0.38,0-0.75,0.02-1.13,0.06
			c-5.54,0.56-9.91,5.26-9.91,10.93v101.29c0,6.02,4.99,11,11.04,11h83.91c6.06,0,11.04-4.97,11.04-11V155.13
			C222.57,149.08,217.61,144.14,211.53,144.14z M168.94,131.41c0.23-0.02,0.47-0.02,0.72-0.02c0.18,0,0.38,0,0.56,0.02
			c7.45,0.24,13.89,5.51,15.65,12.73H153.3C155.05,136.91,161.49,131.65,168.94,131.41z M214.34,259.06h-86.72
			c-1.47,0-2.66-1.17-2.66-2.65v-60.91h-0.14v-40.38c0-1.44,1.19-2.65,2.66-2.65h17.13v11.95c0,2.16,1.65,3.95,3.76,4.17
			c0.14,0.02,0.29,0.02,0.43,0.02c0.09,0,0.2,0,0.29-0.02c2.11-0.21,3.76-2.01,3.76-4.17v-11.95h33.49v11.95
			c0,2.16,1.63,3.95,3.76,4.17c0.14,0.02,0.27,0.02,0.43,0.02c0.09,0,0.18,0,0.27-0.02c2.12-0.21,3.77-2.01,3.77-4.17v-11.95h17.13
			c1.47,0,2.66,1.2,2.66,2.65V259.06z"/>
		<g>
			<g>
				<path class="st1" d="M245.44,200.07v26.12c0,2.67-2.78,4.85-6.19,4.85h-44.01c-3.42,0-6.21-2.18-6.21-4.85v-26.12
					c0-2.67,2.78-4.84,6.21-4.84h44.01c3.15,0,5.81,1.84,6.15,4.3C245.42,199.69,245.44,199.89,245.44,200.07z"/>
			</g>
		</g>
		<g>
			<g>
				<path class="st2" d="M237.89,204.46v17.35c0,1.78-2.04,3.22-4.54,3.22h-32.25c-2.51,0-4.55-1.45-4.55-3.22v-17.35
					c0-1.78,2.04-3.21,4.55-3.21h32.25c2.31,0,4.26,1.22,4.51,2.86C237.88,204.21,237.89,204.34,237.89,204.46z"/>
			</g>
		</g>
	</g>
</g>
</svg>
