<?xml version="1.0" encoding="utf-8"?>
<!-- Generator: Adobe Illustrator 23.0.5, SVG Export Plug-In . SVG Version: 6.00 Build 0)  -->
<svg version="1.1" id="Layer_1" xmlns="http://www.w3.org/2000/svg" xmlns:xlink="http://www.w3.org/1999/xlink" x="0px" y="0px"
	 viewBox="0 0 231 57" style="enable-background:new 0 0 231 57;" xml:space="preserve">
<style type="text/css">
	.st0{clip-path:url(#SVGID_1_);}
	.st1{fill:#2E67B1;}
	.st2{fill:#98CB67;}
	.st3{fill-rule:evenodd;clip-rule:evenodd;fill:#DFE6F4;}
	.st4{fill-rule:evenodd;clip-rule:evenodd;fill:#0C2D34;}
	.st5{fill-rule:evenodd;clip-rule:evenodd;fill:#1A7255;}
	.st6{fill-rule:evenodd;clip-rule:evenodd;fill:#A5C76A;}
	.st7{fill-rule:evenodd;clip-rule:evenodd;fill:#5F9750;}
	.st8{fill-rule:evenodd;clip-rule:evenodd;fill:#4A8F76;}
	.st9{fill-rule:evenodd;clip-rule:evenodd;fill:#F7B242;}
	.st10{fill-rule:evenodd;clip-rule:evenodd;fill:#C48036;}
	.st11{fill-rule:evenodd;clip-rule:evenodd;fill:#E03C83;}
	.st12{fill-rule:evenodd;clip-rule:evenodd;fill:#B73470;}
	.st13{fill-rule:evenodd;clip-rule:evenodd;fill:#0A0A13;}
	.st14{fill-rule:evenodd;clip-rule:evenodd;fill:#EE8922;}
	.st15{fill-rule:evenodd;clip-rule:evenodd;fill:#F8BF13;}
	.st16{fill-rule:evenodd;clip-rule:evenodd;fill:#101537;}
	.st17{fill-rule:evenodd;clip-rule:evenodd;fill:#E74D8F;}
	.st18{fill-rule:evenodd;clip-rule:evenodd;fill:#2E67B1;}
	.st19{fill-rule:evenodd;clip-rule:evenodd;fill:#FFFFFF;}
	.st20{fill-rule:evenodd;clip-rule:evenodd;fill:#9FB2D7;}
	.st21{fill-rule:evenodd;clip-rule:evenodd;fill:#BFCCE8;}
	.st22{fill-rule:evenodd;clip-rule:evenodd;fill:url(#SVGID_3_);}
	.st23{fill-rule:evenodd;clip-rule:evenodd;fill:#2F3459;}
	.st24{fill-rule:evenodd;clip-rule:evenodd;fill:#F2F3F0;}
	.st25{fill-rule:evenodd;clip-rule:evenodd;fill:#98CB67;}
	.st26{fill-rule:evenodd;clip-rule:evenodd;fill:#E3E0E7;}
	.st27{fill:#231F20;}
	.st28{fill-rule:evenodd;clip-rule:evenodd;fill:#2A4D3C;}
	.st29{fill-rule:evenodd;clip-rule:evenodd;fill:#3C405F;}
	.st30{fill-rule:evenodd;clip-rule:evenodd;fill:#F08D70;}
	.st31{fill-rule:evenodd;clip-rule:evenodd;fill:#204285;}
	.st32{fill-rule:evenodd;clip-rule:evenodd;fill:#152850;}
	.st33{fill-rule:evenodd;clip-rule:evenodd;fill:#110E20;}
	.st34{fill-rule:evenodd;clip-rule:evenodd;fill:#5E82BB;}
	.st35{fill-rule:evenodd;clip-rule:evenodd;fill:#005254;}
	.st36{fill-rule:evenodd;clip-rule:evenodd;fill:#0B4E89;}
	.st37{fill-rule:evenodd;clip-rule:evenodd;fill:#F3AB81;}
	.st38{fill-rule:evenodd;clip-rule:evenodd;fill:#ED8F73;}
	.st39{fill-rule:evenodd;clip-rule:evenodd;fill:#699ED4;}
	.st40{fill-rule:evenodd;clip-rule:evenodd;fill:#545765;}
	.st41{fill-rule:evenodd;clip-rule:evenodd;fill:#F5AF1A;}
	.st42{fill:#FFFFFF;}
	.st43{fill-rule:evenodd;clip-rule:evenodd;fill:url(#SVGID_4_);}
	.st44{clip-path:url(#SVGID_5_);}
</style>
<g>
	<g>
		<path class="st1" d="M216.37,57H14.63C6.55,57,0,50.45,0,42.37l0-27.73C0,6.55,6.55,0,14.63,0l201.73,0
			C224.45,0,231,6.55,231,14.63v27.73C231,50.45,224.45,57,216.37,57z"/>
	</g>
	<g>
		<path class="st42" d="M81.38,29.32h-5.93v3.74h7v2.9H71.68V20.32h10.8v2.91h-7.03v3.3h5.93V29.32z"/>
		<path class="st42" d="M97.05,35.96H93.3l-5.54-9.73v9.73h-3.77V20.32h3.77l5.53,9.73v-9.73h3.76V35.96z"/>
		<path class="st42" d="M111.4,23.23h-4.69v12.73h-3.77V23.23h-4.61v-2.91h13.07V23.23z"/>
		<path class="st42" d="M118.81,30.43h-2.04v5.53h-3.77V20.32h6.16c1.85,0,3.3,0.41,4.35,1.23c1.04,0.82,1.57,1.99,1.57,3.49
			c0,1.09-0.22,1.99-0.66,2.7c-0.44,0.71-1.13,1.29-2.07,1.74l3.27,6.32v0.16h-4.04L118.81,30.43z M116.77,27.53h2.38
			c0.72,0,1.25-0.19,1.62-0.57s0.54-0.9,0.54-1.58c0-0.67-0.18-1.2-0.55-1.59s-0.9-0.58-1.61-0.58h-2.38V27.53z"/>
		<path class="st42" d="M136.23,33.04h-5.17l-0.9,2.92h-4.03l5.74-15.64h3.54l5.78,15.64h-4.05L136.23,33.04z M131.97,30.13h3.36
			l-1.69-5.42L131.97,30.13z"/>
		<path class="st42" d="M148.14,30.43h-2.04v5.53h-3.77V20.32h6.16c1.85,0,3.3,0.41,4.35,1.23c1.04,0.82,1.57,1.99,1.57,3.49
			c0,1.09-0.22,1.99-0.66,2.7c-0.44,0.71-1.13,1.29-2.07,1.74l3.27,6.32v0.16h-4.04L148.14,30.43z M146.1,27.53h2.38
			c0.72,0,1.25-0.19,1.62-0.57s0.54-0.9,0.54-1.58c0-0.67-0.18-1.2-0.55-1.59s-0.9-0.58-1.61-0.58h-2.38V27.53z"/>
	</g>
</g>
</svg>
