<?xml version="1.0" encoding="utf-8"?>
<!-- Generator: Adobe Illustrator 23.0.5, SVG Export Plug-In . SVG Version: 6.00 Build 0)  -->
<svg version="1.1" id="Layer_1" xmlns="http://www.w3.org/2000/svg" xmlns:xlink="http://www.w3.org/1999/xlink" x="0px" y="0px"
	 viewBox="0 0 1045.12 671.25" style="enable-background:new 0 0 1045.12 671.25;" xml:space="preserve">
<style type="text/css">
	.st0{clip-path:url(#SVGID_1_);}
	.st1{fill:#2E67B1;}
	.st2{fill:#98CB67;}
	.st3{fill-rule:evenodd;clip-rule:evenodd;fill:#DFE6F4;}
	.st4{fill-rule:evenodd;clip-rule:evenodd;fill:#0C2D34;}
	.st5{fill-rule:evenodd;clip-rule:evenodd;fill:#1A7255;}
	.st6{fill-rule:evenodd;clip-rule:evenodd;fill:#A5C76A;}
	.st7{fill-rule:evenodd;clip-rule:evenodd;fill:#5F9750;}
	.st8{fill-rule:evenodd;clip-rule:evenodd;fill:#4A8F76;}
	.st9{fill-rule:evenodd;clip-rule:evenodd;fill:#F7B242;}
	.st10{fill-rule:evenodd;clip-rule:evenodd;fill:#C48036;}
	.st11{fill-rule:evenodd;clip-rule:evenodd;fill:#E03C83;}
	.st12{fill-rule:evenodd;clip-rule:evenodd;fill:#B73470;}
	.st13{fill-rule:evenodd;clip-rule:evenodd;fill:#0A0A13;}
	.st14{fill-rule:evenodd;clip-rule:evenodd;fill:#EE8922;}
	.st15{fill-rule:evenodd;clip-rule:evenodd;fill:#F8BF13;}
	.st16{fill-rule:evenodd;clip-rule:evenodd;fill:#101537;}
	.st17{fill-rule:evenodd;clip-rule:evenodd;fill:#E74D8F;}
	.st18{fill-rule:evenodd;clip-rule:evenodd;fill:#2E67B1;}
	.st19{fill-rule:evenodd;clip-rule:evenodd;fill:#FFFFFF;}
	.st20{fill-rule:evenodd;clip-rule:evenodd;fill:#9FB2D7;}
	.st21{fill-rule:evenodd;clip-rule:evenodd;fill:#BFCCE8;}
	.st22{fill-rule:evenodd;clip-rule:evenodd;fill:url(#SVGID_3_);}
	.st23{fill-rule:evenodd;clip-rule:evenodd;fill:#2F3459;}
	.st24{fill-rule:evenodd;clip-rule:evenodd;fill:#F2F3F0;}
	.st25{fill-rule:evenodd;clip-rule:evenodd;fill:#98CB67;}
	.st26{fill-rule:evenodd;clip-rule:evenodd;fill:#E3E0E7;}
	.st27{fill:#231F20;}
	.st28{fill-rule:evenodd;clip-rule:evenodd;fill:#2A4D3C;}
	.st29{fill-rule:evenodd;clip-rule:evenodd;fill:#3C405F;}
	.st30{fill-rule:evenodd;clip-rule:evenodd;fill:#F08D70;}
	.st31{fill-rule:evenodd;clip-rule:evenodd;fill:#204285;}
	.st32{fill-rule:evenodd;clip-rule:evenodd;fill:#152850;}
	.st33{fill-rule:evenodd;clip-rule:evenodd;fill:#110E20;}
	.st34{fill-rule:evenodd;clip-rule:evenodd;fill:#5E82BB;}
	.st35{fill-rule:evenodd;clip-rule:evenodd;fill:#005254;}
	.st36{fill-rule:evenodd;clip-rule:evenodd;fill:#0B4E89;}
	.st37{fill-rule:evenodd;clip-rule:evenodd;fill:#F3AB81;}
	.st38{fill-rule:evenodd;clip-rule:evenodd;fill:#ED8F73;}
	.st39{fill-rule:evenodd;clip-rule:evenodd;fill:#699ED4;}
	.st40{fill-rule:evenodd;clip-rule:evenodd;fill:#545765;}
	.st41{fill-rule:evenodd;clip-rule:evenodd;fill:#F5AF1A;}
	.st42{fill:#FFFFFF;}
	.st43{fill-rule:evenodd;clip-rule:evenodd;fill:url(#SVGID_4_);}
	.st44{font-family:'Roboto-Black';}
	.st45{font-size:16.4514px;}
	.st46{clip-path:url(#SVGID_5_);}
</style>
<g>
	<g>
		<path class="st3" d="M178.28,488.06c25.33,0,46.05-21.53,46.05-47.86l0,0c0-26.32-20.72-47.86-46.05-47.86h-14.32
			c-26.33,0-47.88-22.39-47.88-49.76l0,0c0-27.36,21.54-49.75,47.88-49.75h48.14c0,0,77.84-3.73,92.82-49.95
			c14.99-46.22,27.07-69.46,112.65-69.46h31.69c17.47,0,31.77-14.86,31.77-33.02v0c0-18.16-14.3-33.02-31.77-33.02H428.2
			c-12.06,0-21.93-10.26-21.93-22.79v0c0-12.53,9.87-22.79,21.93-22.79c87.08,0,132.44,0,219.52,0c56.33,0,58.81-27.38,81.11-27.38
			c22.3,0,4.48,0,4.48,0h60.48c9.24,0,16.8,7.86,16.8,17.46v0c0,9.6-7.56,17.46-16.8,17.46h-16.14c-13.39,0-24.35,11.39-24.35,25.3
			v0c0,13.92,10.95,25.3,24.35,25.3H946.9c34.4,0,62.54,29.25,62.54,64.99v0c0,35.75-28.14,64.99-62.54,64.99h-72.39
			c-33.08,0-60.15,28.13-60.15,62.51l0,0c0,34.38,27.07,62.51,60.15,62.51h0c78.24,0,142.26,66.53,142.26,147.84v0
			c0,81.31-64.02,147.84-142.26,147.84H389.16h-44.17H88.5c-48.32,0-87.85-41.09-87.85-91.3l0,0c0-50.22,39.53-91.3,87.85-91.3h2.28
			H178.28L178.28,488.06z M47.88,392.35c26.44,0,47.88-22.28,47.88-49.76c0-27.48-21.43-49.75-47.88-49.75
			C21.43,292.84,0,315.11,0,342.59C0,370.07,21.43,392.35,47.88,392.35L47.88,392.35z M857.76,51.91c0-9.64-7.52-17.46-16.8-17.46
			c-9.28,0-16.8,7.82-16.8,17.46c0,9.64,7.52,17.46,16.8,17.46C850.23,69.37,857.76,61.55,857.76,51.91z"/>
		<g>
			<path class="st4" d="M634.12,231.65c-22.58-2.28-54.71-9.49-86.81-30.17c-45.49-29.31,46.69-24.46,122.81-3.44l-27.15,28.53
				L634.12,231.65z"/>
			<g>
				<path class="st5" d="M554.99,175.06c15.63,13.63,55.94,40.2,95.21,68.74l41.97,13.93l6.44-26.58
					c-31.59-46.05-72.86-92.62-107.78-115.47C529.56,75.61,500.14,127.23,554.99,175.06z"/>
				<path class="st4" d="M692.49,256.41c-51.87-75.15-144.75-132.64-145.09-132.85c-0.66-0.41-1.49-0.16-1.84,0.56
					c-0.35,0.72-0.1,1.64,0.56,2.06c0.33,0.21,91.73,56.79,143.31,130.64l2.73,0.91L692.49,256.41z"/>
			</g>
			<g>
				<path class="st6" d="M641.79,69.13c8.35,20.42,21.72,68.76,37.22,118.68c-4.98,20.93-16.78,39.25-32.88,52.11
					c-32.06-46.16-60.79-99.66-72.26-142.34C551.42,14.05,609.99-8.61,641.79,69.13z"/>
				<path class="st7" d="M662.91,222.47c-45.7-78.29-69.34-174.76-69.44-175.17c-0.22-0.9,0.25-1.83,1.05-2.07
					c0.8-0.24,1.64,0.29,1.86,1.19c0.1,0.4,23.48,95.75,68.49,173.31C664.23,220.66,663.58,221.57,662.91,222.47z"/>
			</g>
			<g>
				<path class="st5" d="M637.94,70.08c1.41,21.15,10.99,69.75,18.47,118.94l19.48,41.07l22.89-13.63
					c9.97-55.6,13.58-118.8,5.16-160.78C689.18-17.97,633-4.16,637.94,70.08z"/>
				<path class="st4" d="M677.03,229.41c16.05-90.96-8.6-200.36-8.69-200.76c-0.17-0.78-0.92-1.23-1.66-0.99
					c-0.74,0.24-1.21,1.07-1.03,1.85c0.09,0.4,24.34,108.04,8.98,197.89l1.27,2.68L677.03,229.41z"/>
			</g>
		</g>
		<g>
			<g>
				<path class="st5" d="M530.57,631.13c15.85,9.17,47.96,23.15,84.87,39.53h110.33l0.26-4.79
					c-50.91-50.42-114.23-99.06-163.92-119.19C474.94,511.37,449.72,584.35,530.57,631.13z"/>
				<path class="st4" d="M691.5,670.66c-81.17-64.78-182.23-102.8-182.65-102.96c-0.94-0.36-1.93,0.17-2.2,1.18
					c-0.28,1.01,0.26,2.11,1.2,2.47c0.41,0.16,97.96,36.84,177.86,99.31H691.5z"/>
			</g>
			<path class="st4" d="M491.8,670.66c10.65-14.98,57.83-21.18,126.07,0h-32.9H491.8z"/>
			<g>
				<path class="st8" d="M610.12,649.1c-18.12-15.82-36.73-36.26-49.19-60.82c-32.17-63.34-42.16-83.31-57.84-88.65
					c-13.54-4.62,103.55-57.03,214.26,66c-3.86,28.21-18.75,58.48-56.33,83.47H610.12z"/>
				<path class="st5" d="M518.56,489.66c63.67,24.22,127.25,74.81,179.26,124.88c-0.91,1.27-1.85,2.53-2.84,3.78
					c-53.29-51.35-118.75-103.2-183.76-126.13C513.34,491.33,515.8,490.47,518.56,489.66z"/>
			</g>
			<g>
				<path class="st6" d="M630.25,385.5c18.71,19.49,52.27,63.22,90.66,111.95c0.01,0.01,39.07,65.09,7.1,125.65
					C658.08,577,589.05,518.89,549.85,465.8C472.48,361.03,542.84,294.45,630.25,385.5z"/>
				<path class="st7" d="M739.63,586.32C634.27,502.8,550.41,383.7,550.06,383.2c-0.81-1.14-0.65-2.73,0.35-3.55
					c1-0.82,2.47-0.56,3.28,0.58c0.35,0.5,82.86,117.67,186.52,200.51C740.05,582.59,739.87,584.45,739.63,586.32z"/>
			</g>
			<g>
				<path class="st6" d="M688.26,667.12c-13.3-16.49-30.72-34.92-51.54-49.93c-50.56-36.45-100.79-16-105.59,3.73
					c-1.96,8.05-0.22,27.03,8.69,49.73h45.14h98.18C684.9,669.49,686.61,668.31,688.26,667.12z"/>
				<path class="st7" d="M651.09,670.66h-2.81c-4.48-11.59-12.16-30.52-18.4-40.76c-0.56-0.93-0.57-2.1-0.02-2.6
					c0.56-0.51,1.46-0.17,2.03,0.76C638.5,638.92,646.6,658.97,651.09,670.66L651.09,670.66z M603.08,646.49
					c-11.85-25.94-23.43-41.93-23.46-41.98c-0.63-0.87-1.53-1.07-2.02-0.46c-0.49,0.61-0.38,1.81,0.25,2.68
					c0.03,0.04,10.43,14.39,21.5,37.96c-18.72-8.93-38.93-16.46-60.41-21.54c-1.58-0.37-2.7,1.02-2.51,3.11
					c0.19,2.09,1.62,4.09,3.19,4.46c10.46,2.47,20.61,5.54,30.43,9.07c-4.56,3.07-11.14,8.32-16.15,15.73
					c-0.45,0.66-0.28,1.87,0.37,2.7c0.65,0.83,1.54,0.96,1.99,0.29c6.04-8.94,14.45-14.62,18.47-17
					c15.35,5.8,29.85,12.71,43.4,20.24c-2.32,2.01-5.63,5.02-9.47,8.91h5.46c3.3-3.17,5.98-5.5,7.63-6.88
					c3.93,2.25,7.78,4.54,11.54,6.88h11.61C632.02,662.09,618.05,653.85,603.08,646.49z"/>
			</g>
		</g>
		<g>
			<g>
				<rect x="137.99" y="583.82" class="st9" width="80.79" height="86.84"/>
				<rect x="204.97" y="583.82" class="st10" width="60.6" height="86.84"/>
				<rect x="228.99" y="583.82" class="st9" width="12.54" height="30.27"/>
				<rect x="228.99" y="624.31" class="st9" width="12.54" height="13.15"/>
			</g>
			<g>
				<rect x="191.96" y="533.7" class="st9" width="46.63" height="50.12"/>
				<rect x="164.96" y="533.7" class="st10" width="34.98" height="50.12"/>
				<rect x="178.83" y="533.7" class="st9" width="7.24" height="17.47"/>
				<rect x="178.83" y="557.07" class="st9" width="7.24" height="7.59"/>
			</g>
		</g>
		<g>
			<path class="st11" d="M201.78,405.88c21.19,0,38.36,17.85,38.36,39.87c0,7.31-1.9,14.43-5.56,20.68l-30.95,52.91
				c-0.41,0.7-1.08,1.08-1.86,1.08c-0.78,0-1.45-0.39-1.86-1.08l-30.95-52.91c-3.65-6.25-5.56-13.37-5.56-20.68
				C163.42,423.73,180.59,405.88,201.78,405.88L201.78,405.88z M187.15,443.55c0,8.4,6.55,15.2,14.63,15.2
				c8.08,0,14.63-6.81,14.63-15.2c0-8.4-6.55-15.2-14.63-15.2C193.7,428.34,187.15,435.15,187.15,443.55z"/>
			<path class="st12" d="M187.15,443.55c0,8.4,6.55,15.2,14.63,15.2v61.67c-0.78,0-1.45-0.39-1.86-1.08l-30.95-52.91
				c-3.65-6.25-5.56-13.37-5.56-20.68c0-22.02,17.18-39.87,38.36-39.87v22.46C193.7,428.34,187.15,435.15,187.15,443.55z"/>
		</g>
		<g>
			<path class="st13" d="M498.73,530.99c0.05,1.08,0.94,1.9,1.97,1.85c1.04-0.05,1.83-0.97,1.78-2.05
				c-1.5-30.27-8.2-47.62-16.17-54.83c-3.56-3.22-7.4-4.51-11.21-4.12c-3.75,0.39-7.38,2.43-10.6,5.91
				c-8.02,8.64-13.71,26.58-12.01,49.97c0.08,1.08,0.98,1.88,2.02,1.8c1.03-0.08,1.81-1.02,1.73-2.1
				c-1.61-22.21,3.59-39.02,10.97-46.97c2.6-2.8,5.43-4.44,8.26-4.73c2.77-0.29,5.64,0.71,8.37,3.18
				C491.13,485.51,497.29,501.92,498.73,530.99z"/>
			<path class="st14" d="M525.67,525.04c0,0,2.45,0.18,3.05,3.87c0.59,3.69,8.8,134.54,8.8,134.54s1.78,7.21-9.48,7.21
				c-33.79,0-67.58,0-101.38,0c-11.25,0-9.48-7.21-9.48-7.21s8.21-130.85,8.8-134.54c0.59-3.69,3.05-3.87,3.05-3.87
				C461.25,525.04,493.46,525.04,525.67,525.04z"/>
			<path class="st15" d="M511.99,525.04c0,0,2.45,0.18,3.05,3.87c0.59,3.69,8.8,134.54,8.8,134.54s1.78,7.21-9.48,7.21
				c-33.79,0-67.58,0-101.38,0c-11.25,0-9.48-7.21-9.48-7.21s8.21-130.85,8.8-134.54c0.59-3.69,3.05-3.87,3.05-3.87
				C447.57,525.04,479.78,525.04,511.99,525.04z"/>
			<path class="st14" d="M466.02,670.66h-1.09h-1.03h-0.23h-0.8h-0.78h-0.24h-1.03h-0.31h-0.71h-0.87h-0.15h-1.03h-0.4h-0.62h-0.96
				h-0.07h-1.03h-0.49h-0.54h-1.03h-0.02h-1.01H451h-0.45h-1.03h-0.11h-0.92h-0.67h-0.36h-1.03h-0.2h-0.83h-0.75h-0.27h-1.03h-0.28
				h-0.74h-0.84h-0.18h-1.03h-0.37h-0.65h-0.93h-0.09h-1.03h-0.46h-0.57h-1.02h-0.01h-1.03h-0.55h-0.48h-1.03h-0.08h-0.95h-0.64
				h-0.39h-1.03h-0.17h-0.86h-0.73h-0.3h-1.03h-0.25h-0.77h-0.81h-0.21h-1.03h-0.34h-0.68h-0.9h-0.13h-1.03h-0.43h-0.6h-0.99h-0.04
				h-1.03h-0.52h-0.51h-1.03h-0.05h-0.98h-0.61c-11.25,0-9.48-7.21-9.48-7.21s3.04-48.41,5.55-87.17h55.36c0,0,1.59,0.11,1.98,2.51
				c0.38,2.39,5.7,87.2,5.7,87.2S473.24,670.63,466.02,670.66z"/>
			<path class="st16" d="M433.65,533.99c-0.02,1.08,0.8,1.97,1.84,1.99c1.03,0.02,1.89-0.83,1.91-1.91
				c0.62-29.3,5.95-45.86,12.69-52.64c2.59-2.6,5.37-3.66,8.11-3.36c2.84,0.31,5.75,2.05,8.48,5.01
				c8.02,8.69,14.15,27.31,13.1,51.36c-0.04,1.08,0.76,1.99,1.79,2.03c1.04,0.05,1.91-0.79,1.96-1.87
				c1.1-25.17-5.51-44.88-14.15-54.23c-3.35-3.63-7.05-5.78-10.8-6.19c-3.85-0.42-7.65,0.97-11.1,4.43
				C440.11,486.03,434.3,503.52,433.65,533.99z"/>
			<path class="st13" d="M400.47,580.94c-0.04,0.77-0.67,1.36-1.4,1.32c-0.74-0.04-1.3-0.69-1.27-1.46
				c1.06-21.56,5.84-33.92,11.52-39.06c2.53-2.29,5.27-3.21,7.98-2.93c2.67,0.28,5.26,1.73,7.55,4.21
				c5.71,6.16,9.77,18.93,8.56,35.59c-0.05,0.77-0.7,1.34-1.44,1.29c-0.74-0.06-1.29-0.72-1.24-1.49
				c1.15-15.82-2.56-27.8-7.81-33.46c-1.85-1.99-3.87-3.16-5.89-3.37c-1.97-0.21-4.01,0.51-5.96,2.27
				C405.88,548.55,401.49,560.24,400.47,580.94z"/>
			<path class="st12" d="M385.79,578.34c0,0-1.56,0.11-1.93,2.45c-0.38,2.34-5.58,85.3-5.58,85.3s-1.13,4.57,6.01,4.57
				c21.42,0,42.85,0,64.27,0c7.13,0,6.01-4.57,6.01-4.57s-5.2-82.95-5.58-85.3c-0.38-2.34-1.93-2.45-1.93-2.45
				C426.64,578.34,406.21,578.34,385.79,578.34z"/>
			<path class="st17" d="M394.46,578.34c0,0-1.56,0.11-1.93,2.45c-0.37,2.34-5.58,85.3-5.58,85.3s-1.13,4.57,6.01,4.57
				c21.42,0,42.85,0,64.27,0c7.13,0,6.01-4.57,6.01-4.57s-5.2-82.95-5.58-85.3c-0.38-2.34-1.93-2.45-1.93-2.45
				C435.31,578.34,414.89,578.34,394.46,578.34z"/>
			<path class="st16" d="M446.83,583.08c0.01,0.77-0.57,1.4-1.31,1.42c-0.74,0.02-1.35-0.59-1.36-1.36
				c-0.44-20.87-4.24-32.66-9.04-37.49c-1.85-1.85-3.82-2.6-5.78-2.39c-2.02,0.22-4.09,1.46-6.04,3.57
				c-5.71,6.19-10.08,19.46-9.33,36.58c0.03,0.77-0.54,1.41-1.28,1.45c-0.74,0.03-1.36-0.56-1.39-1.33
				c-0.78-17.93,3.93-31.97,10.07-38.63c2.39-2.59,5.02-4.11,7.7-4.41c2.74-0.3,5.45,0.69,7.91,3.15
				C442.22,548.92,446.36,561.38,446.83,583.08z"/>
		</g>
		<g>
			<path class="st18" d="M225.67,72.24h94.05c6.83,0,12.42,5.81,12.42,12.91v53.23v3.94v33.89c0,0.6-0.33,1.1-0.86,1.33
				c-0.53,0.23-1.11,0.11-1.51-0.31l-21.17-22h-82.94c-6.83,0-12.42-5.81-12.42-12.91V85.15C213.25,78.05,218.84,72.24,225.67,72.24
				z"/>
			<path class="st19" d="M292.94,95.91h0.02c-0.01,0.08-0.03,0.17-0.06,0.26l-1.57,4.39h-19.66c-0.84,0-1.52,0.71-1.52,1.58
				s0.68,1.58,1.52,1.58h18.53l-1.82,5.09h-8.38c-0.84,0-1.52,0.71-1.52,1.58s0.68,1.58,1.52,1.58h7.25l-0.98,2.73
				c-0.18,0.51-0.57,0.99-1.06,1.36c-0.45,0.34-0.94,0.55-1.37,0.55h-25.43c-0.43,0-0.92-0.21-1.37-0.55
				c-0.47-0.35-0.85-0.82-1.04-1.31l-0.01-0.02l-0.01-0.02l-0.98-2.73h19.81c0.84,0,1.53-0.71,1.53-1.58s-0.68-1.58-1.53-1.58
				h-20.95l-1.82-5.09h8.35c0.84,0,1.52-0.71,1.52-1.58s-0.68-1.58-1.52-1.58h-9.48l-1.13-3.17l-0.02-0.06l-0.35-0.97v0l-0.06-0.19
				c-0.03-0.1-0.06-0.18-0.07-0.26H292.94L292.94,95.91z M266.98,100.56h-2.02c-0.84,0-1.52,0.71-1.52,1.58s0.68,1.58,1.52,1.58
				h2.02c0.84,0,1.53-0.71,1.53-1.58S267.82,100.56,266.98,100.56L266.98,100.56z M288.4,129.56h0.92c1.26,0,2.29-1.06,2.29-2.38
				c0-1.31-1.02-2.38-2.29-2.38h-8.17h-21.57l-1.23-3.43l0.05,0h25.43c1.4,0,2.85-0.57,4.06-1.48c1.17-0.89,2.15-2.14,2.65-3.53
				l6.64-18.55c0.25-0.71,0.37-1.39,0.37-2.02c0-0.96-0.26-1.85-0.74-2.6c-0.5-0.77-1.21-1.37-2.1-1.71
				c-0.55-0.21-1.14-0.33-1.76-0.33h-43.67c-0.59,0-1.14,0.1-1.65,0.28l-2.51-7c-0.34-0.95-1.21-1.54-2.14-1.54v-0.01h-8.94
				c-1.26,0-2.29,1.06-2.29,2.38c0,1.31,1.02,2.38,2.29,2.38h7.36l3.53,9.87c0.03,0.1,0.07,0.21,0.1,0.31l0.07,0.18l0,0.01
				l0.35,0.97l0.02,0.06l4.13,11.55l0.02,0.06l2.05,5.72l0.02,0.07l3.22,9c-0.98,0.42-1.86,1.04-2.6,1.8l-0.02,0.02
				c-1.45,1.51-2.35,3.6-2.35,5.9c0,2.31,0.9,4.39,2.36,5.9c1.46,1.51,3.47,2.45,5.68,2.45c2.22,0,4.23-0.94,5.68-2.45
				c1.45-1.51,2.35-3.6,2.35-5.9c0-1.29-0.28-2.51-0.79-3.6h8.66c-0.5,1.09-0.79,2.31-0.79,3.6c0,2.31,0.9,4.39,2.36,5.9
				c1.46,1.51,3.47,2.45,5.68,2.45c2.22,0,4.23-0.94,5.68-2.45c1.45-1.51,2.35-3.6,2.35-5.9
				C289.18,131.87,288.9,130.65,288.4,129.56L288.4,129.56z M283.59,130.61l0.09,0.09c0.57,0.64,0.92,1.5,0.92,2.45
				c0,0.99-0.39,1.89-1.01,2.54c-0.63,0.65-1.49,1.05-2.45,1.05c-0.96,0-1.83-0.4-2.45-1.04v-0.01c-0.63-0.65-1.01-1.55-1.01-2.54
				c0-1,0.39-1.9,1.01-2.54l0.01-0.01c0.61-0.63,1.46-1.03,2.4-1.04h0.04h0.04C282.13,129.57,282.98,129.97,283.59,130.61
				L283.59,130.61z M260.53,130.7c0.57,0.64,0.92,1.5,0.92,2.45c0,0.99-0.39,1.89-1.01,2.54c-0.63,0.65-1.49,1.05-2.45,1.05
				c-0.96,0-1.83-0.4-2.45-1.04v-0.01c-0.63-0.65-1.01-1.55-1.01-2.54c0-1,0.39-1.9,1.01-2.54l0.01-0.01
				c0.62-0.64,1.49-1.04,2.45-1.04h0.04c0.94,0.01,1.79,0.41,2.4,1.05L260.53,130.7z"/>
		</g>
		<path class="st19" d="M417.06,391.85c-2.04,0-3.9,0.87-5.24,2.27c-1.34,1.4-2.18,3.33-2.18,5.44v11.16h-2.3
			c-1.68,0-3.21,0.72-4.33,1.87c-1.11,1.15-1.8,2.75-1.8,4.5c0,10.8-0.3,22.38,0,33.16c-0.05,1.19,0.02,1.8,1.45,2.44
			c1.83,0.81,2.39,0.22,3.1-1.23l0.11-0.22c0.56-1.01,2.28-3.83,4.86-5.8c1.4-1.07,3.05-1.86,4.88-1.86h22.95
			c1.69,0,3.22-0.72,4.33-1.87c1.11-1.15,1.8-2.75,1.8-4.5v-2.86h3.26c2.65,0,5.04,1.14,7.05,2.68c3.78,2.89,6.25,7.12,6.88,8.29
			l0.07,0.15c0.73,1.43,0.78,2.26,3.02,1.25c1.4-0.51,1.57-1.23,1.52-2.52l0-44.64c0-2.12-0.83-4.04-2.18-5.44l-0.01-0.01
			c-1.35-1.4-3.2-2.26-5.24-2.26H417.06L417.06,391.85z M453.18,419.53c-0.79,0-1.43-0.66-1.43-1.48s0.64-1.49,1.43-1.49h2.52
			c0.79,0,1.43,0.67,1.43,1.49s-0.64,1.48-1.43,1.48H453.18L453.18,419.53z M447.77,416.56c0.79,0,1.43,0.67,1.43,1.49
			s-0.64,1.48-1.43,1.48h-23.22c-0.79,0-1.43-0.66-1.43-1.48s0.64-1.49,1.43-1.49H447.77L447.77,416.56z M422.98,405.1
			c0.79,0,1.43,0.67,1.43,1.49c0,0.82-0.64,1.49-1.43,1.49h-2.52c-0.79,0-1.43-0.67-1.43-1.49c0-0.82,0.64-1.49,1.43-1.49H422.98
			L422.98,405.1z M428.39,408.07c-0.79,0-1.43-0.67-1.43-1.49c0-0.82,0.64-1.49,1.43-1.49h27.31c0.79,0,1.43,0.67,1.43,1.49
			c0,0.82-0.64,1.49-1.43,1.49H428.39L428.39,408.07z M439.92,434.35v2.86c0,0.39-0.16,0.74-0.4,1s-0.59,0.42-0.96,0.42h-22.95
			c-2.98,0-5.57,1.21-7.69,2.83c-0.7,0.53-1.35,1.12-1.95,1.72V417.1c0-0.39,0.16-0.74,0.4-1.01c0.24-0.25,0.58-0.41,0.96-0.41h2.3
			v10.96c0,2.13,0.83,4.06,2.18,5.45c1.34,1.4,3.2,2.26,5.24,2.26H439.92L439.92,434.35z M460.96,397.61
			c0.48,0.5,0.78,1.19,0.78,1.95v37.21c-1.12-1.29-2.44-2.59-3.93-3.73c-2.73-2.09-6.05-3.64-9.86-3.64h-5.64h-25.24
			c-0.73,0-1.4-0.31-1.88-0.81c-0.48-0.5-0.78-1.19-0.78-1.95v-13.43v-13.64c0-0.76,0.3-1.45,0.78-1.95
			c0.48-0.5,1.15-0.81,1.88-0.81h42.01C459.81,396.8,460.48,397.11,460.96,397.61z"/>
		<path class="st18" d="M235.74,209.58H92.62c-1.85,0-3.36,1.57-3.36,3.49v34.2c0,1.92,1.51,3.49,3.36,3.49h143.12
			c1.85,0,3.36-1.57,3.36-3.49v-34.2C239.1,211.15,237.59,209.58,235.74,209.58z"/>
		<path class="st19" d="M230.45,216.25h-22c-0.97,0-1.76,0.82-1.76,1.82v24.2c0,1,0.79,1.82,1.76,1.82h22
			c0.97,0,1.76-0.82,1.76-1.82v-24.2C232.2,217.07,231.41,216.25,230.45,216.25z"/>
		<g>
			<path class="st19" d="M195.51,218.25h-93.23c-0.81,0-1.48,0.69-1.48,1.54l0,0c0,0.85,0.67,1.54,1.48,1.54h93.23
				c0.81,0,1.48-0.69,1.48-1.54l0,0C196.99,218.94,196.32,218.25,195.51,218.25z"/>
			<path class="st19" d="M195.51,228.63h-93.23c-0.81,0-1.48,0.69-1.48,1.54l0,0c0,0.85,0.67,1.54,1.48,1.54h93.23
				c0.81,0,1.48-0.69,1.48-1.54l0,0C196.99,229.33,196.32,228.63,195.51,228.63z"/>
			<path class="st19" d="M195.51,239.02h-41.57c-0.82,0-1.48,0.69-1.48,1.54l0,0c0,0.85,0.67,1.54,1.48,1.54h41.57
				c0.82,0,1.48-0.69,1.48-1.54l0,0C196.99,239.71,196.32,239.02,195.51,239.02z"/>
		</g>
		<g>
			<path class="st20" d="M77.52,529.63c-13.44,0-25.61,5.66-34.41,14.82c-8.81,9.15-14.26,21.8-14.26,35.77s5.45,26.61,14.26,35.77
				c8.81,9.15,20.98,14.81,34.41,14.81c13.44,0,25.61-5.66,34.42-14.81c8.81-9.15,14.25-21.8,14.25-35.77
				c0-13.97-5.45-26.61-14.25-35.77C103.13,535.29,90.96,529.63,77.52,529.63L77.52,529.63z M122.27,580.21
				c0,12.84-5.01,24.47-13.11,32.88c-8.1,8.42-19.28,13.62-31.64,13.62c-12.36,0-23.54-5.21-31.64-13.62
				c-8.1-8.41-13.11-20.04-13.11-32.88s5.01-24.47,13.11-32.88c8.1-8.42,19.29-13.62,31.64-13.62c12.36,0,23.54,5.21,31.64,13.62
				C117.26,555.74,122.27,567.37,122.27,580.21z"/>
			<path class="st20" d="M118.41,579.44h-3.63c-0.41,0-0.74,0.34-0.74,0.76s0.33,0.76,0.74,0.76h3.63c0.4,0,0.73-0.34,0.73-0.76
				S118.82,579.44,118.41,579.44L118.41,579.44z M50.19,607.52l-1.65,1.72c-0.29,0.3-0.29,0.78,0,1.08c0.29,0.3,0.75,0.3,1.04,0
				l1.65-1.72c0.29-0.3,0.29-0.78,0-1.08C50.95,607.22,50.48,607.22,50.19,607.52L50.19,607.52z M105.46,550.09l-1.65,1.72
				c-0.29,0.3-0.29,0.78,0,1.08c0.29,0.3,0.75,0.3,1.04,0l1.65-1.72c0.29-0.3,0.29-0.78,0-1.08
				C106.21,549.79,105.74,549.79,105.46,550.09L105.46,550.09z M76.78,618.93v3.77c0,0.42,0.33,0.77,0.74,0.77
				c0.41,0,0.74-0.34,0.74-0.77v-3.77c0-0.42-0.33-0.76-0.74-0.76C77.11,618.16,76.78,618.51,76.78,618.93L76.78,618.93z
				 M76.78,537.71v3.78c0,0.42,0.33,0.76,0.74,0.76c0.41,0,0.74-0.34,0.74-0.76v-3.78c0-0.42-0.33-0.76-0.74-0.76
				C77.11,536.95,76.78,537.29,76.78,537.71L76.78,537.71z M51.23,551.81l-1.65-1.72c-0.29-0.3-0.75-0.3-1.04,0
				c-0.29,0.3-0.29,0.78,0,1.08l1.65,1.72c0.29,0.3,0.75,0.3,1.04,0C51.52,552.59,51.52,552.11,51.23,551.81L51.23,551.81z
				 M106.5,609.24l-1.65-1.72c-0.29-0.3-0.75-0.3-1.04,0c-0.29,0.3-0.29,0.78,0,1.08l1.65,1.72c0.29,0.3,0.75,0.3,1.04,0
				C106.78,610.02,106.78,609.54,106.5,609.24L106.5,609.24z M36.63,579.44c-0.41,0-0.74,0.34-0.74,0.76s0.33,0.76,0.74,0.76h3.63
				c0.41,0,0.74-0.34,0.74-0.76s-0.33-0.76-0.74-0.76H36.63z"/>
			<path class="st20" d="M78.99,580.21c0,0.84-0.66,1.53-1.47,1.53c-0.81,0-1.47-0.68-1.47-1.53v-34.45c0-0.84,0.66-1.53,1.47-1.53
				c0.81,0,1.47,0.68,1.47,1.53V580.21z"/>
			<path class="st20" d="M76.25,580.97c-0.4-0.73-0.16-1.66,0.54-2.08c0.7-0.42,1.6-0.17,2,0.56l13.52,24.33
				c0.4,0.73,0.16,1.66-0.54,2.08c-0.7,0.42-1.6,0.17-2-0.56L76.25,580.97z"/>
			<path class="st20" d="M77.52,584.34c-2.19,0-3.98-1.86-3.98-4.14s1.79-4.14,3.98-4.14c2.19,0,3.98,1.86,3.98,4.14
				S79.71,584.34,77.52,584.34z"/>
		</g>
		<path class="st21" d="M118.49,90.1c-2.16,2.25-3.91,4.94-5.1,7.93c-1.15,2.88-1.78,6.03-1.78,9.33c0,3.3,0.63,6.46,1.78,9.34
			c1.2,3,2.94,5.69,5.1,7.93c2.16,2.25,4.75,4.06,7.63,5.3c2.77,1.19,5.81,1.85,8.98,1.85c3.18,0,6.21-0.66,8.99-1.85
			c2.88-1.24,5.47-3.05,7.63-5.3c2.16-2.25,3.91-4.94,5.1-7.93c1.15-2.88,1.78-6.04,1.78-9.34c0-3.3-0.63-6.45-1.78-9.33
			c-1.19-3-2.94-5.69-5.1-7.93c-2.16-2.25-4.75-4.06-7.63-5.3c-2.77-1.19-5.81-1.85-8.98-1.85c-3.18,0-6.21,0.66-8.98,1.85
			C123.24,86.04,120.65,87.86,118.49,90.1L118.49,90.1z M126.95,86.89c2.51-1.08,5.26-1.68,8.16-1.68c2.89,0,5.65,0.6,8.16,1.68
			c2.6,1.12,4.95,2.77,6.92,4.82c1.97,2.05,3.56,4.49,4.63,7.19c1.04,2.61,1.61,5.47,1.61,8.48c0,3.01-0.57,5.87-1.61,8.48
			c-1.08,2.7-2.66,5.14-4.63,7.19c-1.97,2.05-4.32,3.7-6.93,4.82c-2.51,1.08-5.26,1.68-8.15,1.68c-2.9,0-5.65-0.6-8.16-1.68
			c-2.6-1.12-4.95-2.77-6.92-4.82c-1.97-2.05-3.56-4.49-4.63-7.19c-1.04-2.61-1.61-5.47-1.61-8.48c0-3.01,0.57-5.87,1.61-8.48
			c1.08-2.7,2.66-5.14,4.63-7.19C122,89.66,124.34,88.01,126.95,86.89L126.95,86.89z M124.35,68.92c0.55-0.13,1.02-0.46,1.37-0.91
			c0.33-0.44,0.53-0.99,0.53-1.58V53.94c0-0.42,0.17-0.81,0.44-1.09c0.14-0.14,0.3-0.26,0.49-0.34c0.17-0.07,0.36-0.12,0.57-0.12
			h14.74c0.2,0,0.39,0.04,0.57,0.12c0.18,0.08,0.35,0.2,0.48,0.34c0.14,0.15,0.25,0.32,0.33,0.5c0.07,0.18,0.11,0.38,0.11,0.59
			l0,12.49c0,0.57,0.18,1.11,0.5,1.54c0.31,0.43,0.76,0.76,1.29,0.92c1.52,0.45,2.99,0.99,4.41,1.62c1.44,0.64,2.84,1.36,4.19,2.17
			c1.36,0.82,2.67,1.72,3.9,2.69c1.24,0.97,2.43,2.03,3.56,3.16c0.39,0.4,0.88,0.65,1.41,0.72c0.52,0.07,1.07-0.02,1.56-0.32
			l10.41-6.25c0.18-0.11,0.36-0.17,0.54-0.19c0.19-0.03,0.4-0.01,0.59,0.05c0.19,0.05,0.37,0.14,0.53,0.27
			c0.15,0.12,0.28,0.27,0.38,0.45c2.33,4.18,4.85,9.37,7.37,13.26c0.1,0.18,0.16,0.37,0.18,0.57c0.03,0.2,0.01,0.41-0.04,0.61
			c-0.05,0.2-0.14,0.39-0.26,0.55c-0.12,0.16-0.26,0.3-0.43,0.39l-10.3,6.18c-0.49,0.26-0.88,0.69-1.11,1.19
			c-0.23,0.51-0.3,1.1-0.16,1.69c0.19,0.79,0.35,1.58,0.49,2.37c0.13,0.76,0.25,1.57,0.35,2.42c0.1,0.82,0.17,1.63,0.21,2.43
			c0.04,0.78,0.07,1.6,0.07,2.45c0,0.85-0.02,1.67-0.07,2.45c-0.05,0.8-0.12,1.61-0.21,2.43c-0.1,0.84-0.22,1.64-0.35,2.41
			c-0.14,0.79-0.3,1.58-0.49,2.37l-0.27,1.15l0.27,0.06c0.03,0.14,0.08,0.28,0.13,0.41c0.2,0.49,0.55,0.92,1.04,1.21l10.41,6.24
			c0.17,0.1,0.31,0.24,0.43,0.39c0.12,0.16,0.2,0.35,0.26,0.55c0.05,0.2,0.07,0.41,0.04,0.61c-0.02,0.19-0.08,0.39-0.18,0.57
			c-2.45,4.43-4.93,8.84-7.37,13.26c-0.1,0.18-0.23,0.33-0.38,0.45c-0.16,0.12-0.34,0.21-0.53,0.27c-0.2,0.05-0.4,0.07-0.59,0.05
			c-0.19-0.02-0.37-0.09-0.54-0.19l-10.28-6.17c-0.47-0.33-1.03-0.46-1.58-0.41c-0.54,0.05-1.06,0.29-1.48,0.7
			c-1.13,1.13-2.32,2.19-3.58,3.18c-1.25,0.98-2.56,1.88-3.92,2.7c-1.34,0.8-2.73,1.52-4.16,2.16c-1.41,0.63-2.86,1.16-4.33,1.6
			c-0.54,0.13-1.02,0.46-1.36,0.91c-0.34,0.44-0.54,0.99-0.54,1.58v12.49c0,0.21-0.04,0.41-0.11,0.59
			c-0.07,0.18-0.19,0.36-0.33,0.51c-0.14,0.14-0.3,0.26-0.49,0.34c-0.17,0.07-0.36,0.12-0.57,0.12h-14.74
			c-0.2,0-0.39-0.04-0.57-0.12c-0.18-0.08-0.35-0.19-0.48-0.34c-0.14-0.15-0.25-0.32-0.33-0.5c-0.07-0.18-0.11-0.38-0.11-0.59
			l0-12.49c0-0.57-0.18-1.11-0.5-1.54c-0.31-0.43-0.76-0.76-1.29-0.92c-1.52-0.45-2.99-0.99-4.41-1.62
			c-1.45-0.64-2.84-1.37-4.19-2.17c-1.36-0.81-2.66-1.72-3.92-2.7c-1.26-0.99-2.46-2.05-3.58-3.18l0,0
			c-0.39-0.39-0.89-0.62-1.41-0.69c-0.5-0.06-1.03,0.04-1.52,0.33c-3.4,2.04-7.12,4.1-10.42,6.25c-0.17,0.1-0.36,0.17-0.54,0.19
			c-0.19,0.03-0.4,0.01-0.59-0.04c-0.19-0.05-0.37-0.14-0.53-0.27c-0.15-0.12-0.28-0.27-0.38-0.45l-0.55-0.99l0,0l-6.82-12.27
			c-0.1-0.18-0.16-0.37-0.18-0.56c-0.02-0.2-0.01-0.41,0.04-0.62c0.05-0.2,0.14-0.39,0.26-0.55c0.12-0.16,0.26-0.29,0.43-0.4
			l1.09-0.65l0,0l9.21-5.52c0.5-0.27,0.89-0.69,1.11-1.2c0.23-0.51,0.3-1.1,0.16-1.69c-0.19-0.79-0.35-1.59-0.49-2.38
			c-0.13-0.77-0.25-1.57-0.35-2.41c-0.1-0.82-0.17-1.63-0.21-2.43c-0.05-0.78-0.07-1.6-0.07-2.45c0-0.85,0.02-1.67,0.07-2.46
			c0.05-0.8,0.12-1.61,0.21-2.43c0.1-0.84,0.22-1.64,0.35-2.41c0.14-0.79,0.31-1.58,0.49-2.37l0.24-1.01l-0.22-0.07
			c-0.03-0.18-0.08-0.36-0.15-0.53c-0.2-0.49-0.55-0.92-1.04-1.21c-3.29-1.97-7.29-4.11-10.4-6.24c-0.17-0.1-0.32-0.24-0.43-0.4
			c-0.12-0.16-0.21-0.35-0.26-0.55c-0.05-0.2-0.07-0.42-0.04-0.62c0.02-0.19,0.08-0.38,0.18-0.56c2.33-4.2,4.85-9.31,7.37-13.26
			c0.1-0.18,0.23-0.33,0.38-0.45c0.16-0.12,0.34-0.21,0.53-0.27c0.19-0.05,0.38-0.07,0.58-0.05c0.17,0.02,0.35,0.07,0.51,0.16
			c3.38,2.16,7.01,4.21,10.46,6.28c0.47,0.28,1.01,0.39,1.53,0.33c0.51-0.06,1.01-0.3,1.41-0.7c1.12-1.13,2.32-2.19,3.58-3.17
			c1.25-0.98,2.56-1.88,3.92-2.7c1.33-0.8,2.72-1.52,4.16-2.16C121.43,69.9,122.88,69.36,124.35,68.92L124.35,68.92z M123.8,66.74
			l0.05-0.02c0.07-0.02,0.12-0.05,0.16-0.1c0.04-0.05,0.06-0.12,0.06-0.19V53.94c0-1.05,0.41-2,1.08-2.69
			c0.34-0.35,0.75-0.63,1.19-0.83c0.43-0.19,0.91-0.29,1.4-0.29h14.74c0.49,0,0.97,0.1,1.4,0.29c0.44,0.19,0.85,0.48,1.19,0.83
			c0.34,0.35,0.61,0.77,0.8,1.24c0.18,0.45,0.28,0.94,0.28,1.45v12.49c0,0.06,0.02,0.13,0.06,0.18c0.04,0.05,0.09,0.09,0.15,0.11
			c1.59,0.47,3.15,1.05,4.66,1.72c1.53,0.67,3,1.44,4.42,2.3c1.42,0.85,2.8,1.8,4.12,2.83c1.33,1.04,2.59,2.15,3.77,3.34l0.02,0.03
			c0.04,0.05,0.1,0.08,0.17,0.08c0.06,0.01,0.13,0,0.18-0.04l9.65-5.79l0-0.01l0.77-0.46c0.42-0.25,0.88-0.41,1.35-0.47
			c0.48-0.06,0.97-0.03,1.43,0.1c0.46,0.13,0.9,0.35,1.29,0.66c0.08,0.07,0.17,0.14,0.24,0.21l0.15-0.09
			c2.62,4.72,5.46,9.52,7.94,14.29c0.24,0.44,0.38,0.9,0.44,1.38c0.06,0.5,0.03,1.01-0.09,1.48c-0.12,0.47-0.34,0.93-0.63,1.33
			c-0.28,0.39-0.64,0.72-1.07,0.98l-10.39,6.24c-0.06,0.03-0.11,0.08-0.13,0.14c-0.03,0.06-0.04,0.13-0.02,0.2
			c0.19,0.81,0.36,1.64,0.52,2.5c0.15,0.87,0.28,1.72,0.38,2.55c0.1,0.83,0.17,1.69,0.22,2.57c0.05,0.88,0.08,1.75,0.08,2.59
			c0,0.84-0.03,1.7-0.08,2.59c-0.05,0.88-0.13,1.74-0.22,2.57c-0.1,0.84-0.23,1.69-0.38,2.55c-0.08,0.46-0.17,0.91-0.26,1.36l0.01,0
			l-0.27,1.14c-0.02,0.06-0.01,0.13,0.01,0.2c0.02,0.06,0.07,0.11,0.12,0.14l10.41,6.24c0.43,0.26,0.79,0.59,1.07,0.98
			c0.3,0.4,0.51,0.86,0.63,1.34c0.12,0.48,0.16,0.98,0.09,1.48c-0.01,0.12-0.03,0.24-0.06,0.36l0.14,0.09
			c-2.61,4.69-5.19,9.69-7.92,14.26c-0.24,0.43-0.56,0.79-0.92,1.08c-0.39,0.31-0.83,0.53-1.29,0.66c-0.46,0.13-0.94,0.16-1.43,0.1
			c-0.46-0.06-0.92-0.22-1.35-0.47l-10.4-6.24c-0.06-0.04-0.12-0.05-0.19-0.05c-0.06,0.01-0.12,0.03-0.17,0.08
			c-1.19,1.2-2.46,2.32-3.78,3.35c-1.32,1.03-2.7,1.98-4.14,2.85c-1.41,0.85-2.88,1.61-4.4,2.28c-1.49,0.66-3.03,1.23-4.63,1.71
			l-0.05,0.02c-0.07,0.02-0.13,0.06-0.16,0.1c-0.04,0.05-0.06,0.11-0.06,0.19v12.49c0,0.51-0.1,1-0.28,1.45
			c-0.19,0.47-0.46,0.89-0.8,1.24c-0.34,0.35-0.75,0.63-1.19,0.83c-0.43,0.19-0.91,0.29-1.4,0.29h-14.74c-0.49,0-0.97-0.1-1.4-0.29
			c-0.45-0.19-0.85-0.48-1.19-0.83c-0.34-0.35-0.61-0.77-0.8-1.24c-0.18-0.45-0.28-0.94-0.28-1.45v-12.49
			c0-0.06-0.02-0.13-0.06-0.18c-0.04-0.05-0.09-0.09-0.15-0.11c-1.59-0.47-3.15-1.05-4.66-1.72c-1.52-0.67-3-1.44-4.42-2.3
			c-1.44-0.87-2.82-1.82-4.14-2.85c-1.32-1.03-2.58-2.15-3.77-3.35c-0.04-0.04-0.11-0.07-0.17-0.08c-0.06-0.01-0.12,0-0.17,0.03
			c-3.42,2.05-6.99,4.36-10.45,6.27c-0.42,0.24-0.87,0.39-1.32,0.45c-0.48,0.06-0.97,0.03-1.43-0.1c-0.46-0.13-0.9-0.35-1.29-0.66
			c-0.08-0.07-0.17-0.14-0.24-0.21l-0.15,0.09l-7.92-14.26c-0.25-0.44-0.4-0.92-0.46-1.41c-0.06-0.5-0.03-1.01,0.09-1.48
			c0.12-0.48,0.34-0.93,0.63-1.34l0.12-0.15l-0.13-0.18c3.78-2.27,7.66-4.77,11.48-6.89c0.05-0.03,0.1-0.08,0.13-0.14
			c0.03-0.06,0.04-0.13,0.02-0.2c-0.19-0.81-0.37-1.65-0.52-2.51c-0.15-0.86-0.28-1.72-0.38-2.55c-0.1-0.83-0.17-1.68-0.22-2.57
			c-0.05-0.88-0.08-1.74-0.08-2.59c0-0.84,0.03-1.71,0.08-2.59c0.05-0.88,0.12-1.73,0.22-2.56c0.1-0.83,0.22-1.69,0.38-2.55
			c0.09-0.51,0.19-1,0.29-1.49l-0.01,0l0.24-1.01c0.01-0.06,0.01-0.13-0.02-0.19c-0.02-0.06-0.06-0.11-0.12-0.14
			c-3.42-2.05-7.06-4.1-10.4-6.24c-0.43-0.26-0.79-0.59-1.07-0.98c-0.3-0.4-0.51-0.86-0.63-1.33c-0.12-0.48-0.16-0.98-0.09-1.49
			c0.06-0.49,0.21-0.97,0.46-1.41c2.43-4.37,4.83-8.99,7.37-13.26c0.25-0.44,0.57-0.82,0.94-1.11c0.39-0.31,0.83-0.53,1.29-0.66
			c0.44-0.12,0.92-0.16,1.38-0.11c0.45,0.05,0.9,0.2,1.32,0.43c3.49,2.11,7,4.2,10.5,6.3c0.05,0.03,0.12,0.04,0.18,0.04
			c0.06-0.01,0.12-0.03,0.17-0.08c1.19-1.2,2.46-2.32,3.78-3.35c1.32-1.03,2.7-1.98,4.14-2.85c1.41-0.85,2.88-1.61,4.4-2.28
			C120.65,67.79,122.2,67.21,123.8,66.74z"/>
		<path class="st21" d="M361.96,43.18L361.96,43.18L361.96,43.18z M367.15,22.66c-1.8,1.88-2.92,4.47-2.92,7.33
			c0,2.86,1.12,5.45,2.92,7.33c1.81,1.88,4.3,3.04,7.05,3.04c2.76,0,5.25-1.16,7.05-3.04c1.81-1.88,2.92-4.47,2.92-7.33
			c0-2.86-1.12-5.45-2.92-7.33c-1.81-1.88-4.3-3.04-7.05-3.04C371.45,19.63,368.95,20.79,367.15,22.66L367.15,22.66z M369.77,11.77
			V6.21c0-0.33,0.13-0.63,0.34-0.84c0.21-0.22,0.5-0.35,0.81-0.35h6.56c0.31,0,0.6,0.13,0.81,0.35c0.21,0.22,0.34,0.51,0.34,0.84
			v5.56c0,0.28,0.18,0.53,0.45,0.61c1.39,0.41,2.71,1,3.93,1.74c1.24,0.75,2.39,1.65,3.42,2.67c0.19,0.2,0.5,0.25,0.74,0.11
			l4.64-2.78l0,0c0.27-0.16,0.59-0.19,0.87-0.11c0.28,0.08,0.54,0.27,0.7,0.55h0l3.26,5.87l0.02,0.04c0.16,0.28,0.19,0.61,0.11,0.9
			c-0.08,0.3-0.26,0.56-0.53,0.72l-4.6,2.76c-0.25,0.13-0.39,0.43-0.32,0.72c0.17,0.71,0.3,1.44,0.39,2.19
			c0.09,0.73,0.13,1.48,0.13,2.23c0,0.76-0.04,1.5-0.13,2.23c-0.09,0.75-0.22,1.48-0.39,2.19h0c-0.06,0.27,0.05,0.56,0.29,0.7
			l4.63,2.78c0.27,0.16,0.45,0.43,0.53,0.73c0.08,0.3,0.04,0.62-0.11,0.9l0,0l-3.26,5.87l-0.02,0.03c-0.16,0.28-0.41,0.47-0.7,0.55
			c-0.28,0.08-0.6,0.05-0.87-0.12l-4.6-2.76c-0.23-0.16-0.55-0.14-0.76,0.07c-1.03,1.03-2.18,1.94-3.43,2.69
			c-1.22,0.73-2.53,1.32-3.91,1.73c-0.27,0.07-0.47,0.32-0.47,0.62v5.56c0,0.33-0.13,0.63-0.34,0.84c-0.21,0.22-0.5,0.35-0.81,0.35
			h-6.56c-0.31,0-0.6-0.13-0.81-0.35c-0.21-0.22-0.34-0.51-0.34-0.84v-5.56c0-0.28-0.18-0.53-0.45-0.61c-1.39-0.42-2.71-1-3.93-1.74
			c-1.25-0.75-2.4-1.65-3.43-2.69c-0.19-0.19-0.49-0.24-0.73-0.09l-4.6,2.76l-0.04,0.02c-0.27,0.16-0.59,0.2-0.87,0.12
			c-0.28-0.08-0.54-0.27-0.7-0.55l0,0l-3.28-5.9c-0.16-0.28-0.19-0.61-0.11-0.91c0.08-0.3,0.26-0.56,0.53-0.73v0l4.6-2.76
			c0.25-0.13,0.39-0.43,0.32-0.72c-0.17-0.71-0.3-1.44-0.39-2.19c-0.08-0.73-0.13-1.47-0.13-2.23c0-0.76,0.04-1.5,0.13-2.23
			c0.09-0.75,0.22-1.48,0.39-2.19h0c0.06-0.27-0.05-0.56-0.29-0.7l-4.6-2.76l-0.03-0.02c-0.27-0.16-0.46-0.43-0.53-0.72
			c-0.08-0.3-0.05-0.62,0.11-0.91l3.26-5.87l0.02-0.03c0.16-0.28,0.41-0.47,0.7-0.55c0.28-0.08,0.58-0.05,0.85,0.1l0.03,0.02
			l4.64,2.78c0.23,0.14,0.53,0.11,0.73-0.09c1.03-1.03,2.18-1.94,3.43-2.69c1.22-0.73,2.53-1.32,3.91-1.73
			C369.57,12.32,369.77,12.07,369.77,11.77z"/>
		<path class="st20" d="M16.17,455.98c2.31,0,4.4,0.97,5.91,2.54c1.51,1.57,2.45,3.74,2.45,6.14c0,2.39-0.93,4.56-2.45,6.13
			l-0.01,0.01c-1.52,1.57-3.6,2.54-5.9,2.54c-2.31,0-4.4-0.97-5.91-2.54c-1.51-1.57-2.45-3.74-2.45-6.14c0-2.39,0.94-4.56,2.45-6.14
			l0,0C11.78,456.95,13.86,455.98,16.17,455.98L16.17,455.98z M10.56,464.67c0,1.61,0.63,3.07,1.64,4.12
			c1.02,1.06,2.42,1.71,3.97,1.71c1.55,0,2.96-0.65,3.97-1.7l0.01-0.01c1.01-1.05,1.64-2.51,1.64-4.12c0-1.61-0.63-3.07-1.64-4.12
			c-1.01-1.06-2.42-1.71-3.97-1.71s-2.96,0.65-3.97,1.71C11.19,461.59,10.56,463.05,10.56,464.67z"/>
		<path class="st20" d="M223.93,0c2.31,0,4.4,0.97,5.91,2.55c1.51,1.57,2.45,3.74,2.45,6.14c0,2.39-0.93,4.56-2.45,6.13l-0.01,0.01
			c-1.52,1.57-3.6,2.54-5.9,2.54c-2.31,0-4.4-0.97-5.91-2.54c-1.51-1.57-2.45-3.74-2.45-6.14c0-2.39,0.94-4.56,2.45-6.13l0-0.01
			C219.54,0.97,221.63,0,223.93,0L223.93,0z M218.32,8.68c0,1.61,0.63,3.07,1.64,4.12c1.01,1.06,2.42,1.71,3.97,1.71
			c1.55,0,2.96-0.65,3.97-1.7l0-0.01c1.01-1.05,1.64-2.51,1.64-4.12c0-1.61-0.63-3.07-1.64-4.12c-1.02-1.05-2.42-1.71-3.97-1.71
			c-1.55,0-2.96,0.65-3.97,1.71C218.95,5.61,218.32,7.07,218.32,8.68z"/>
		<path class="st20" d="M440.41,144.95c2.31,0,4.4,0.97,5.91,2.54c1.51,1.57,2.45,3.74,2.45,6.14c0,2.39-0.93,4.56-2.45,6.13
			l-0.01,0.01c-1.51,1.57-3.6,2.54-5.9,2.54c-2.31,0-4.4-0.97-5.91-2.54c-1.51-1.57-2.45-3.74-2.45-6.14c0-2.39,0.94-4.56,2.45-6.14
			l0-0.01C436.02,145.92,438.11,144.95,440.41,144.95L440.41,144.95z M434.8,153.63c0,1.61,0.63,3.07,1.64,4.12
			c1.01,1.06,2.42,1.71,3.97,1.71c1.55,0,2.96-0.65,3.97-1.7l0-0.01c1.01-1.05,1.64-2.51,1.64-4.12c0-1.61-0.63-3.07-1.64-4.12
			c-1.02-1.05-2.42-1.71-3.97-1.71c-1.55,0-2.96,0.65-3.97,1.71C435.42,150.56,434.8,152.02,434.8,153.63z"/>
		<path class="st20" d="M507.24,339.72c2.31,0,4.4,0.97,5.91,2.54c1.51,1.57,2.45,3.74,2.45,6.14c0,2.39-0.93,4.56-2.44,6.13
			l-0.01,0.01c-1.52,1.57-3.6,2.54-5.9,2.54c-2.31,0-4.4-0.97-5.91-2.54c-1.51-1.57-2.45-3.74-2.45-6.14c0-2.39,0.94-4.56,2.45-6.13
			l0.01-0.01C502.85,340.69,504.94,339.72,507.24,339.72L507.24,339.72z M501.63,348.41c0,1.61,0.63,3.07,1.64,4.12
			c1.02,1.06,2.42,1.71,3.97,1.71c1.55,0,2.96-0.65,3.97-1.7l0.01-0.01c1.01-1.05,1.64-2.51,1.64-4.12c0-1.61-0.63-3.07-1.64-4.12
			c-1.01-1.05-2.42-1.71-3.97-1.71c-1.55,0-2.95,0.65-3.97,1.71C502.26,345.33,501.63,346.79,501.63,348.41z"/>
		<path class="st20" d="M239.91,327.64c2.31,0,4.4,0.97,5.91,2.54c1.51,1.57,2.45,3.74,2.45,6.14c0,2.39-0.93,4.56-2.45,6.13
			l-0.01,0.01c-1.52,1.57-3.6,2.54-5.9,2.54c-2.31,0-4.4-0.97-5.91-2.54c-1.51-1.57-2.45-3.74-2.45-6.14c0-2.39,0.94-4.57,2.45-6.14
			l0.01-0.01C235.52,328.62,237.61,327.64,239.91,327.64L239.91,327.64z M234.3,336.33c0,1.61,0.63,3.07,1.64,4.12
			c1.02,1.06,2.42,1.71,3.97,1.71c1.55,0,2.96-0.65,3.97-1.7l0-0.01c1.01-1.05,1.64-2.51,1.64-4.12c0-1.61-0.63-3.07-1.64-4.13
			c-1.02-1.05-2.42-1.71-3.97-1.71c-1.55,0-2.96,0.65-3.97,1.71C234.93,333.26,234.3,334.71,234.3,336.33z"/>
		<path class="st20" d="M276.23,540.53c2.31,0,4.4,0.97,5.91,2.54c1.51,1.57,2.45,3.74,2.45,6.14c0,2.39-0.94,4.56-2.45,6.13
			l-0.01,0.01c-1.52,1.57-3.6,2.54-5.9,2.54c-2.31,0-4.4-0.97-5.91-2.54c-1.51-1.57-2.45-3.74-2.45-6.14c0-2.39,0.94-4.56,2.45-6.13
			l0-0.01C271.84,541.51,273.93,540.53,276.23,540.53L276.23,540.53z M270.62,549.22c0,1.61,0.63,3.07,1.64,4.12
			c1.01,1.06,2.42,1.71,3.97,1.71c1.55,0,2.96-0.65,3.97-1.7l0.01-0.01c1.01-1.05,1.64-2.51,1.64-4.12c0-1.61-0.63-3.07-1.64-4.12
			c-1.01-1.05-2.42-1.71-3.97-1.71c-1.55,0-2.95,0.65-3.97,1.71C271.25,546.15,270.62,547.61,270.62,549.22z"/>
		<path class="st20" d="M1009.93,298.95c2.31,0,4.4,0.97,5.91,2.54c1.51,1.57,2.45,3.74,2.45,6.14c0,2.39-0.93,4.56-2.45,6.13
			l-0.01,0.01c-1.51,1.57-3.6,2.54-5.9,2.54c-2.31,0-4.4-0.97-5.91-2.54c-1.51-1.57-2.45-3.74-2.45-6.14c0-2.39,0.94-4.56,2.45-6.13
			l0.01-0.01C1005.54,299.93,1007.63,298.95,1009.93,298.95L1009.93,298.95z M1004.32,307.64c0,1.61,0.63,3.07,1.64,4.12
			c1.02,1.06,2.42,1.71,3.97,1.71c1.55,0,2.96-0.65,3.97-1.7l0-0.01c1.01-1.05,1.64-2.51,1.64-4.12c0-1.61-0.63-3.07-1.64-4.12
			c-1.02-1.05-2.42-1.71-3.97-1.71c-1.55,0-2.96,0.65-3.97,1.71C1004.95,304.57,1004.32,306.03,1004.32,307.64z"/>
		<path class="st21" d="M69.1,42.5c0-0.98-0.77-1.78-1.71-1.78c-0.95,0-1.71,0.8-1.71,1.78v4.18h-4.02c-0.94,0-1.71,0.8-1.71,1.78
			c0,0.98,0.77,1.78,1.71,1.78h4.02v4.18c0,0.98,0.77,1.78,1.71,1.78c0.94,0,1.71-0.8,1.71-1.78v-4.18h4.02
			c0.94,0,1.71-0.8,1.71-1.78c0-0.98-0.77-1.78-1.71-1.78H69.1V42.5z"/>
		<path class="st21" d="M273.95,188.96c0-0.98-0.77-1.78-1.71-1.78c-0.95,0-1.71,0.8-1.71,1.78v4.18h-4.02
			c-0.94,0-1.71,0.8-1.71,1.78c0,0.98,0.77,1.78,1.71,1.78h4.02v4.18c0,0.98,0.77,1.78,1.71,1.78c0.94,0,1.71-0.8,1.71-1.78v-4.18
			h4.02c0.95,0,1.71-0.8,1.71-1.78c0-0.98-0.77-1.78-1.71-1.78h-4.02V188.96z"/>
		<path class="st21" d="M522.39,13.81c0-0.98-0.77-1.78-1.71-1.78c-0.94,0-1.71,0.8-1.71,1.78v4.18h-4.02
			c-0.94,0-1.71,0.8-1.71,1.78c0,0.98,0.77,1.78,1.71,1.78h4.02v4.18c0,0.98,0.77,1.78,1.71,1.78c0.94,0,1.71-0.8,1.71-1.78v-4.18
			h4.02c0.95,0,1.71-0.8,1.71-1.78c0-0.98-0.77-1.78-1.71-1.78h-4.02V13.81z"/>
		<path class="st21" d="M1013.46,99.88c0-0.98-0.77-1.78-1.71-1.78c-0.94,0-1.71,0.8-1.71,1.78v4.18h-4.02
			c-0.94,0-1.71,0.8-1.71,1.78c0,0.98,0.77,1.78,1.71,1.78h4.02v4.18c0,0.98,0.77,1.78,1.71,1.78c0.94,0,1.71-0.8,1.71-1.78v-4.18
			h4.02c0.94,0,1.71-0.8,1.71-1.78c0-0.98-0.77-1.78-1.71-1.78h-4.02V99.88z"/>
		<path class="st21" d="M1027.99,602.66c0-0.98-0.77-1.78-1.71-1.78c-0.94,0-1.71,0.8-1.71,1.78v4.18h-4.02
			c-0.95,0-1.71,0.8-1.71,1.78c0,0.98,0.77,1.78,1.71,1.78h4.02v4.18c0,0.98,0.77,1.78,1.71,1.78c0.95,0,1.71-0.8,1.71-1.78v-4.18
			h4.02c0.95,0,1.71-0.8,1.71-1.78c0-0.98-0.77-1.78-1.71-1.78h-4.02V602.66z"/>
		<path class="st21" d="M382.92,483.38c0-0.98-0.77-1.78-1.71-1.78c-0.95,0-1.71,0.8-1.71,1.78v4.18h-4.02
			c-0.94,0-1.71,0.8-1.71,1.78c0,0.98,0.77,1.78,1.71,1.78h4.02v4.18c0,0.98,0.77,1.78,1.71,1.78c0.94,0,1.71-0.8,1.71-1.78v-4.18
			h4.02c0.95,0,1.71-0.8,1.71-1.78c0-0.98-0.77-1.78-1.71-1.78h-4.02V483.38z"/>
		<path class="st21" d="M513.68,158.76c0-0.98-0.77-1.78-1.71-1.78s-1.71,0.8-1.71,1.78v4.18h-4.02c-0.94,0-1.71,0.8-1.71,1.78
			c0,0.98,0.77,1.78,1.71,1.78h4.02v4.18c0,0.98,0.77,1.78,1.71,1.78s1.71-0.8,1.71-1.78v-4.18h4.02c0.94,0,1.71-0.8,1.71-1.78
			c0-0.98-0.77-1.78-1.71-1.78h-4.02V158.76z"/>
		<g>
			<g>
				
					<linearGradient id="SVGID_1_" gradientUnits="userSpaceOnUse" x1="7442.3843" y1="358.8154" x2="7775.4126" y2="358.8154" gradientTransform="matrix(-1 0 0 1 8422 0)">
					<stop  offset="0" style="stop-color:#3A5FAB"/>
					<stop  offset="0.1263" style="stop-color:#507FBE"/>
					<stop  offset="0.2749" style="stop-color:#649ECF"/>
					<stop  offset="0.4312" style="stop-color:#74B6DD"/>
					<stop  offset="0.5965" style="stop-color:#7FC7E6"/>
					<stop  offset="0.7768" style="stop-color:#86D1EC"/>
					<stop  offset="1" style="stop-color:#88D4EE"/>
				</linearGradient>
				<path style="fill-rule:evenodd;clip-rule:evenodd;fill:url(#SVGID_1_);" d="M688.21,46.97h249.77
					c22.89,0,41.63,19.47,41.63,43.26V627.4c0,23.79-18.73,43.26-41.63,43.26H688.21c-22.9,0-41.63-19.47-41.63-43.26V90.23
					C646.59,66.44,665.32,46.97,688.21,46.97z"/>
				<path class="st13" d="M674.52,46.97H924.3c22.89,0,41.63,19.47,41.63,43.26V627.4c0,23.79-18.73,43.26-41.63,43.26H674.52
					c-22.9,0-41.63-19.47-41.63-43.26V90.23C632.89,66.44,651.63,46.97,674.52,46.97z"/>
				<path class="st23" d="M674.52,53.85c-19.24,0-35.01,16.39-35.01,36.38V627.4c0,20,15.77,36.38,35.01,36.38H924.3
					c19.24,0,35.01-16.39,35.01-36.38V90.23c0-20-15.77-36.38-35.01-36.38H674.52z"/>
				<path class="st24" d="M674.52,67.6c-11.94,0-21.78,10.23-21.78,22.63V627.4c0,12.41,9.84,22.63,21.78,22.63H924.3
					c11.94,0,21.78-10.22,21.78-22.63V90.23c0-12.41-9.84-22.63-21.78-22.63H674.52z"/>
				<g>
					<path class="st20" d="M915.01,611.39c0.85,0,1.63,0.36,2.19,0.95c0.56,0.58,0.91,1.39,0.91,2.27v4.65h0.96
						c0.7,0,1.34,0.3,1.81,0.78c0.46,0.48,0.75,1.15,0.75,1.87c0,4.5,0.12,9.33,0,13.82c0.02,0.5-0.01,0.75-0.6,1.02
						c-0.76,0.34-1,0.09-1.29-0.51l-0.05-0.09c-0.23-0.42-0.95-1.6-2.02-2.41c-0.58-0.45-1.27-0.78-2.03-0.78h-9.56
						c-0.7,0-1.34-0.3-1.8-0.78c-0.46-0.48-0.75-1.15-0.75-1.88v-1.19h-1.36c-1.11,0-2.1,0.47-2.94,1.11
						c-1.58,1.2-2.6,2.97-2.87,3.45l-0.03,0.06c-0.3,0.59-0.33,0.94-1.26,0.52c-0.58-0.21-0.65-0.51-0.63-1.05l0-18.6
						c0-0.88,0.35-1.69,0.91-2.27l0,0c0.56-0.58,1.33-0.94,2.18-0.94H915.01L915.01,611.39z M899.96,622.93
						c0.33,0,0.6-0.28,0.6-0.62c0-0.34-0.27-0.62-0.6-0.62h-1.05c-0.33,0-0.6,0.28-0.6,0.62c0,0.34,0.27,0.62,0.6,0.62H899.96
						L899.96,622.93z M902.21,621.69c-0.33,0-0.6,0.28-0.6,0.62c0,0.34,0.27,0.62,0.6,0.62h9.67c0.33,0,0.6-0.28,0.6-0.62
						c0-0.34-0.27-0.62-0.6-0.62H902.21L902.21,621.69z M912.54,616.91c-0.33,0-0.6,0.28-0.6,0.62c0,0.34,0.27,0.62,0.6,0.62h1.05
						c0.33,0,0.6-0.28,0.6-0.62c0-0.34-0.27-0.62-0.6-0.62H912.54L912.54,616.91z M910.29,618.15c0.33,0,0.6-0.28,0.6-0.62
						c0-0.34-0.27-0.62-0.6-0.62h-11.38c-0.33,0-0.6,0.28-0.6,0.62c0,0.34,0.27,0.62,0.6,0.62H910.29L910.29,618.15z M905.48,629.1
						v1.19c0,0.16,0.06,0.31,0.17,0.42c0.1,0.11,0.25,0.17,0.4,0.17h9.56c1.24,0,2.32,0.5,3.2,1.18c0.29,0.22,0.56,0.47,0.81,0.72
						v-10.87c0-0.16-0.06-0.31-0.17-0.42c-0.1-0.1-0.24-0.17-0.4-0.17h-0.96v4.56c0,0.89-0.35,1.69-0.91,2.27
						c-0.56,0.58-1.33,0.94-2.19,0.94H905.48L905.48,629.1z M896.71,613.79c-0.2,0.21-0.32,0.5-0.32,0.82v15.5
						c0.47-0.53,1.02-1.08,1.64-1.55c1.14-0.87,2.52-1.52,4.11-1.52h2.35h10.52c0.3,0,0.58-0.13,0.78-0.34
						c0.2-0.21,0.33-0.5,0.33-0.81v-5.6v-5.68c0-0.32-0.13-0.61-0.33-0.81c-0.2-0.21-0.48-0.34-0.78-0.34H897.5
						C897.19,613.45,896.92,613.58,896.71,613.79z"/>
					<path class="st20" d="M834.34,602.25c1.99,0,3.79,0.84,5.1,2.2c1.31,1.36,2.11,3.23,2.11,5.29c0,2.06-0.81,3.93-2.11,5.29l0,0
						c-1.31,1.35-3.11,2.19-5.09,2.19c-1.96,0-3.74-0.82-5.04-2.14l-0.06-0.06c-1.3-1.36-2.11-3.23-2.11-5.3
						c0-2.07,0.81-3.94,2.11-5.3C830.55,603.09,832.35,602.25,834.34,602.25L834.34,602.25z M826.32,629.09v5.31
						c0,0.12,0.05,0.23,0.12,0.31c0.08,0.08,0.18,0.13,0.3,0.13h15.21c0.11,0,0.22-0.05,0.29-0.12l0,0
						c0.07-0.08,0.12-0.18,0.12-0.31v-5.31l0-0.03l0-0.04v-0.65c0-2.29-0.9-4.38-2.36-5.89c-1.46-1.51-3.46-2.45-5.67-2.45
						c-2.2,0-4.21,0.94-5.67,2.45l-0.05,0.05c-1.43,1.51-2.31,3.57-2.31,5.84v0.65l0,0.03L826.32,629.09L826.32,629.09z
						 M824.34,629.06l0-0.03v-0.65c0-2.83,1.1-5.41,2.88-7.29l0.05-0.06c1.81-1.88,4.32-3.05,7.07-3.05c2.75,0,5.26,1.17,7.07,3.06
						c1.81,1.88,2.94,4.48,2.94,7.34v0.65v0.03l0,0.04v5.31c0,0.68-0.27,1.31-0.71,1.76l0,0c-0.44,0.45-1.04,0.73-1.69,0.73h-15.21
						c-0.66,0-1.26-0.28-1.69-0.73l0,0c-0.43-0.45-0.71-1.07-0.71-1.76v-5.31L824.34,629.06L824.34,629.06z M829.12,609.74
						c0,1.5,0.58,2.86,1.53,3.84l0.05,0.05c0.94,0.95,2.23,1.54,3.65,1.54c1.45,0,2.75-0.61,3.69-1.59l0.01,0
						c0.94-0.98,1.53-2.34,1.53-3.84c0-1.5-0.58-2.86-1.53-3.84c-0.94-0.98-2.25-1.59-3.69-1.59c-1.44,0-2.75,0.61-3.69,1.59
						C829.71,606.88,829.12,608.24,829.12,609.74z"/>
					<path class="st20" d="M757.26,612.45V610c0-0.39,0.14-0.75,0.36-1.02l0.08-0.1c0.28-0.29,0.66-0.46,1.08-0.46h3.73
						c0.42,0,0.8,0.18,1.08,0.47c0.27,0.29,0.45,0.68,0.45,1.12v2.45c0.63,0.23,1.23,0.51,1.8,0.85c0.58,0.35,1.12,0.75,1.62,1.2
						l2.04-1.23c0.37-0.22,0.78-0.26,1.16-0.16c0.38,0.1,0.72,0.36,0.93,0.74l1.87,3.35c0.21,0.38,0.25,0.81,0.15,1.2
						c-0.1,0.39-0.34,0.74-0.71,0.96l-2.04,1.23c0.04,0.2,0.07,0.41,0.1,0.63c0.06,0.48,0.09,0.96,0.09,1.43
						c0,0.47-0.03,0.94-0.09,1.43c-0.03,0.21-0.06,0.42-0.1,0.63l2.04,1.22c0.36,0.22,0.61,0.57,0.71,0.96
						c0.1,0.39,0.06,0.82-0.16,1.2l-1.86,3.36c-0.21,0.38-0.55,0.63-0.93,0.74c-0.34,0.09-0.72,0.06-1.06-0.11l-0.09-0.05
						l-2.04-1.23c-0.5,0.45-1.04,0.85-1.62,1.2c-0.57,0.34-1.17,0.63-1.8,0.85v2.45c0,0.39-0.14,0.75-0.36,1.02l-0.08,0.1
						c-0.28,0.28-0.66,0.46-1.08,0.46h-3.73c-0.42,0-0.8-0.18-1.08-0.47c-0.28-0.29-0.45-0.68-0.45-1.12v-2.45
						c-0.63-0.23-1.23-0.51-1.8-0.86c-0.58-0.35-1.12-0.75-1.62-1.2l-2.04,1.23c-0.37,0.22-0.78,0.26-1.16,0.16
						c-0.38-0.1-0.71-0.36-0.92-0.74l-1.87-3.35c-0.21-0.38-0.25-0.81-0.15-1.2c0.1-0.39,0.35-0.74,0.71-0.96l2.04-1.22
						c-0.04-0.2-0.07-0.42-0.1-0.63c-0.06-0.48-0.09-0.96-0.09-1.43c0-0.47,0.03-0.94,0.09-1.43c0.03-0.21,0.06-0.42,0.1-0.63
						l-2.04-1.22c-0.36-0.22-0.61-0.57-0.71-0.96c-0.1-0.39-0.06-0.82,0.16-1.2l1.86-3.36c0.21-0.38,0.55-0.63,0.92-0.74
						c0.34-0.1,0.72-0.07,1.06,0.11l0.09,0.05l2.04,1.23c0.5-0.45,1.04-0.86,1.62-1.2C756.03,612.96,756.63,612.68,757.26,612.45
						L757.26,612.45z M756.45,615.09c-0.65,0.39-1.24,0.87-1.77,1.42c-0.32,0.34-0.82,0.39-1.2,0.16l-2.28-1.37l-1.41,2.54
						l2.28,1.37c0.4,0.24,0.58,0.72,0.46,1.16l0,0c-0.1,0.38-0.18,0.76-0.22,1.13c-0.05,0.36-0.07,0.75-0.07,1.16
						c0,0.41,0.02,0.8,0.07,1.16c0.05,0.37,0.12,0.75,0.22,1.13c0.13,0.49-0.11,1-0.54,1.21l-2.2,1.32l1.41,2.54l2.28-1.37
						c0.4-0.24,0.91-0.15,1.22,0.18c0.52,0.54,1.11,1.01,1.75,1.4c0.64,0.38,1.33,0.68,2.05,0.88c0.44,0.12,0.74,0.54,0.74,0.99
						v2.73h2.81v-2.73c0-0.5,0.34-0.92,0.8-1.01c0.7-0.2,1.37-0.49,1.99-0.86c0.65-0.39,1.24-0.87,1.77-1.42
						c0.32-0.34,0.82-0.39,1.2-0.17l2.28,1.37l1.41-2.54l-2.28-1.37c-0.4-0.24-0.58-0.72-0.46-1.16l0,0
						c0.1-0.38,0.18-0.76,0.22-1.13c0.05-0.36,0.07-0.75,0.07-1.16c0-0.41-0.02-0.8-0.07-1.16c-0.05-0.37-0.12-0.75-0.22-1.13
						c-0.13-0.48,0.1-0.98,0.52-1.19l2.22-1.33l-1.41-2.54l-2.28,1.37c-0.41,0.24-0.91,0.16-1.22-0.18
						c-0.52-0.54-1.11-1.01-1.75-1.4c-0.64-0.38-1.32-0.68-2.05-0.88c-0.44-0.12-0.74-0.54-0.74-1v-2.73h-2.81v2.73
						c0,0.5-0.35,0.92-0.8,1.01C757.74,614.42,757.07,614.72,756.45,615.09L756.45,615.09z M760.65,617.15
						c-1.46,0-2.79,0.62-3.75,1.62c-0.96,1-1.55,2.37-1.55,3.9c0,1.52,0.59,2.9,1.55,3.9c0.96,1,2.28,1.61,3.75,1.61
						c1.46,0,2.78-0.62,3.75-1.61l0,0c0.96-1,1.55-2.38,1.55-3.89c0-1.52-0.59-2.9-1.55-3.9l-0.06-0.06
						C763.38,617.74,762.08,617.15,760.65,617.15L760.65,617.15z M757.33,622.66c0,0.96,0.37,1.82,0.97,2.44
						c0.6,0.62,1.43,1.01,2.35,1.01c0.92,0,1.75-0.38,2.35-1l0,0c0.6-0.62,0.97-1.48,0.97-2.44c0-0.95-0.37-1.81-0.97-2.44
						l-0.04-0.05c-0.59-0.59-1.41-0.96-2.3-0.96c-0.92,0-1.75,0.39-2.35,1.01C757.71,620.85,757.33,621.71,757.33,622.66z"/>
					<path class="st20" d="M679.72,619.19L679.72,619.19c1.72-1.79,3.97-2.68,6.21-2.68c2.25,0,4.5,0.89,6.21,2.68
						c1.71,1.78,2.57,4.12,2.57,6.45c0,2.01-0.64,4.03-1.91,5.68l3.67,3.81c0.39,0.4,0.39,1.06,0,1.46c-0.39,0.4-1.02,0.4-1.4,0
						l-3.67-3.81c-1.6,1.32-3.53,1.98-5.47,1.98c-2.22,0-4.44-0.87-6.15-2.62l-0.06-0.06c-1.71-1.78-2.57-4.12-2.57-6.46
						C677.15,623.31,678.01,620.97,679.72,619.19L679.72,619.19z M692.73,625.64c0-1.81-0.66-3.62-1.99-5
						c-1.33-1.38-3.07-2.07-4.81-2.07c-1.74,0-3.48,0.69-4.81,2.07c-1.33,1.38-1.99,3.19-1.99,5c0,1.81,0.66,3.62,1.99,4.99
						l0.05,0.05c1.32,1.35,3.04,2.02,4.76,2.02c1.73,0,3.46-0.68,4.79-2.05l0.02-0.02l0.02-0.02
						C692.07,629.24,692.73,627.44,692.73,625.64z"/>
				</g>
			</g>
			<path class="st3" d="M926.92,206.24H744.86c-2.88,0-5.23,2.45-5.23,5.44v369.21c0,2.99,2.35,5.44,5.23,5.44h182.06
				c2.88,0,5.23-2.45,5.23-5.44V211.67C932.14,208.68,929.79,206.24,926.92,206.24z"/>
			<g>
				<path class="st12" d="M835.89,229.66c0,0-14.33,1.23-25.19-6.23l-4.42,2.21l28.12,72.8l1.49,2.31l1.49-2.31l28.12-72.8
					l-4.42-2.21C850.22,230.89,835.89,229.66,835.89,229.66z"/>
				<path class="st11" d="M810.7,223.43l-15.98,3.54c0,0,9.89,25.07,1.31,45.97c0,0,6.79,38.16,6.91,39.04
					c0.12,0.88-0.06,3.35,0.12,4.01c0.18,0.66,1.25,1.21,1.25,1.21h31.58l5.48-37.23L810.7,223.43z"/>
				<path class="st17" d="M861.07,223.43l15.98,3.54c0,0-9.89,25.07-1.31,45.97c0,0-6.79,38.16-6.91,39.04
					c-0.12,0.88,0.06,3.35-0.12,4.01c-0.18,0.66-1.25,1.21-1.25,1.21h-52.55L861.07,223.43z"/>
				<path class="st11" d="M867.31,322.86c0,0,36.79,225.37,37.27,231.52c0.48,6.16-34.79,14.74-68.69,14.74
					c-33.9,0-69.16-8.58-68.69-14.74c0.48-6.16,37.27-231.52,37.27-231.52l31.42-2.28L867.31,322.86z"/>
				<path class="st12" d="M867.43,317.2h-63.08c-0.53,0-0.96,0.45-0.96,0.99v3.68c0,0.55,0.43,0.99,0.96,0.99h63.08
					c0.53,0,0.96-0.45,0.96-0.99v-3.68C868.38,317.65,867.95,317.2,867.43,317.2z"/>
			</g>
			<path class="st25" d="M722.35,206.24h-54.66c-2.88,0-5.23,2.45-5.23,5.44v41.67c0,2.99,2.35,5.44,5.23,5.44h54.66
				c2.88,0,5.23-2.45,5.23-5.44v-41.67C727.58,208.68,725.23,206.24,722.35,206.24z"/>
			<path class="st18" d="M928.8,193.7h-263c-1.84,0-3.34-1.56-3.34-3.47V186c0-1.91,1.5-3.47,3.34-3.47h263
				c1.84,0,3.34,1.56,3.34,3.47v4.23C932.14,192.14,930.64,193.7,928.8,193.7z"/>
			<path class="st18" d="M928.8,171.96h-263c-1.84,0-3.34-1.56-3.34-3.47v-4.23c0-1.91,1.5-3.47,3.34-3.47h263
				c1.84,0,3.34,1.56,3.34,3.47v4.23C932.14,170.4,930.64,171.96,928.8,171.96z"/>
			<path class="st18" d="M928.8,150.22h-263c-1.84,0-3.34-1.56-3.34-3.47v-4.23c0-1.91,1.5-3.47,3.34-3.47h263
				c1.84,0,3.34,1.56,3.34,3.47v4.23C932.14,148.66,930.64,150.22,928.8,150.22z"/>
			<path class="st25" d="M722.35,417.64h-54.66c-2.88,0-5.23,2.45-5.23,5.44v41.67c0,2.99,2.35,5.44,5.23,5.44h54.66
				c2.88,0,5.23-2.45,5.23-5.44v-41.67C727.58,420.09,725.23,417.64,722.35,417.64z"/>
			<g>
				<path class="st26" d="M726.74,266.63H663.3c-0.46,0-0.84,0.39-0.84,0.87v6.7c0,0.48,0.38,0.87,0.84,0.87h63.44
					c0.46,0,0.84-0.39,0.84-0.87v-6.7C727.58,267.03,727.2,266.63,726.74,266.63z"/>
				<path class="st26" d="M726.74,285.05H663.3c-0.46,0-0.84,0.39-0.84,0.87v6.7c0,0.48,0.38,0.87,0.84,0.87h63.44
					c0.46,0,0.84-0.39,0.84-0.87v-6.7C727.58,285.45,727.2,285.05,726.74,285.05z"/>
				<path class="st26" d="M726.74,303.47H663.3c-0.46,0-0.84,0.39-0.84,0.87v6.7c0,0.48,0.38,0.87,0.84,0.87h63.44
					c0.46,0,0.84-0.39,0.84-0.87v-6.7C727.58,303.87,727.2,303.47,726.74,303.47z"/>
				<path class="st26" d="M726.74,321.89H663.3c-0.46,0-0.84,0.39-0.84,0.87v6.7c0,0.48,0.38,0.87,0.84,0.87h63.44
					c0.46,0,0.84-0.39,0.84-0.87v-6.7C727.58,322.29,727.2,321.89,726.74,321.89z"/>
				<path class="st26" d="M726.74,340.31H663.3c-0.46,0-0.84,0.39-0.84,0.87v6.7c0,0.48,0.38,0.88,0.84,0.88h63.44
					c0.46,0,0.84-0.39,0.84-0.88v-6.7C727.58,340.71,727.2,340.31,726.74,340.31z"/>
				<path class="st26" d="M726.74,358.73H663.3c-0.46,0-0.84,0.39-0.84,0.88v6.7c0,0.48,0.38,0.87,0.84,0.87h63.44
					c0.46,0,0.84-0.39,0.84-0.87v-6.7C727.58,359.13,727.2,358.73,726.74,358.73z"/>
				<path class="st26" d="M726.74,377.15H663.3c-0.46,0-0.84,0.39-0.84,0.87v6.7c0,0.48,0.38,0.87,0.84,0.87h63.44
					c0.46,0,0.84-0.39,0.84-0.87v-6.7C727.58,377.55,727.2,377.15,726.74,377.15z"/>
				<path class="st26" d="M726.74,395.57H663.3c-0.46,0-0.84,0.39-0.84,0.88v6.7c0,0.48,0.38,0.87,0.84,0.87h63.44
					c0.46,0,0.84-0.39,0.84-0.87v-6.7C727.58,395.97,727.2,395.57,726.74,395.57z"/>
			</g>
			<g>
				<path class="st21" d="M726.74,485.77H663.3c-0.46,0-0.84,0.39-0.84,0.87v6.7c0,0.48,0.38,0.87,0.84,0.87h63.44
					c0.46,0,0.84-0.39,0.84-0.87v-6.7C727.58,486.16,727.2,485.77,726.74,485.77z"/>
				<path class="st21" d="M726.74,504.19H663.3c-0.46,0-0.84,0.39-0.84,0.87v6.7c0,0.48,0.38,0.87,0.84,0.87h63.44
					c0.46,0,0.84-0.39,0.84-0.87v-6.7C727.58,504.58,727.2,504.19,726.74,504.19z"/>
				<path class="st21" d="M726.74,522.61H663.3c-0.46,0-0.84,0.39-0.84,0.87v6.7c0,0.48,0.38,0.87,0.84,0.87h63.44
					c0.46,0,0.84-0.39,0.84-0.87v-6.7C727.58,523,727.2,522.61,726.74,522.61z"/>
				<path class="st21" d="M726.74,541.03H663.3c-0.46,0-0.84,0.39-0.84,0.87v6.7c0,0.48,0.38,0.88,0.84,0.88h63.44
					c0.46,0,0.84-0.39,0.84-0.88v-6.7C727.58,541.42,727.2,541.03,726.74,541.03z"/>
				<path class="st21" d="M726.74,559.45H663.3c-0.46,0-0.84,0.39-0.84,0.87v6.7c0,0.48,0.38,0.87,0.84,0.87h63.44
					c0.46,0,0.84-0.39,0.84-0.87v-6.7C727.58,559.84,727.2,559.45,726.74,559.45z"/>
				<path class="st21" d="M726.74,577.87H663.3c-0.46,0-0.84,0.39-0.84,0.87v6.7c0,0.48,0.38,0.87,0.84,0.87h63.44
					c0.46,0,0.84-0.39,0.84-0.87v-6.7C727.58,578.26,727.2,577.87,726.74,577.87z"/>
			</g>
			<g>
				<path class="st27" d="M679.61,448.4c0-0.81-0.19-1.44-0.58-1.9c-0.38-0.46-1.06-0.9-2.02-1.3c-0.96-0.41-1.85-0.82-2.67-1.24
					c-0.82-0.42-1.52-0.9-2.11-1.46c-0.59-0.55-1.04-1.19-1.36-1.92c-0.31-0.72-0.47-1.6-0.47-2.63c0-1.73,0.56-3.15,1.68-4.27
					c1.12-1.12,2.61-1.77,4.48-1.95v-3.23h2.34v3.29c1.8,0.28,3.21,1.05,4.24,2.31s1.54,2.86,1.54,4.8h-4.98
					c0-1.06-0.2-1.88-0.59-2.45c-0.39-0.57-0.95-0.86-1.68-0.86c-0.65,0-1.15,0.21-1.51,0.64c-0.36,0.42-0.54,1.01-0.54,1.75
					c0,0.75,0.21,1.36,0.62,1.8c0.41,0.44,1.08,0.87,1.99,1.27c0.91,0.4,1.78,0.82,2.59,1.26c0.81,0.43,1.51,0.93,2.1,1.48
					c0.59,0.55,1.05,1.2,1.39,1.93c0.33,0.73,0.5,1.62,0.5,2.65c0,1.75-0.53,3.17-1.6,4.28c-1.07,1.1-2.52,1.75-4.36,1.93v3.08
					h-2.35v-3.1c-2.14-0.24-3.79-1-4.93-2.29c-1.15-1.29-1.72-3-1.72-5.11h4.97c0,1.16,0.25,2.05,0.74,2.66
					c0.5,0.61,1.2,0.91,2.12,0.91c0.67,0,1.19-0.21,1.58-0.62C679.42,449.69,679.61,449.12,679.61,448.4z"/>
				<path class="st27" d="M687.5,443.41l1.31-11.41h12.55v4.02h-8.51l-0.49,4.43c0.35-0.21,0.82-0.4,1.39-0.57
					c0.58-0.16,1.14-0.25,1.69-0.25c2.13,0,3.77,0.66,4.92,1.97c1.14,1.31,1.72,3.15,1.72,5.53c0,1.43-0.31,2.73-0.92,3.88
					c-0.62,1.16-1.48,2.05-2.59,2.67c-1.11,0.62-2.42,0.94-3.94,0.94c-1.35,0-2.61-0.29-3.79-0.87c-1.18-0.57-2.1-1.37-2.77-2.37
					c-0.67-1.01-1-2.14-0.99-3.41h4.98c0.05,0.82,0.3,1.46,0.75,1.94c0.45,0.48,1.05,0.72,1.79,0.72c1.67,0,2.51-1.28,2.51-3.85
					c0-2.37-1.02-3.56-3.07-3.56c-1.16,0-2.03,0.39-2.6,1.16L687.5,443.41z"/>
				<path class="st27" d="M719.61,445.2c0,3.01-0.65,5.34-1.95,6.97c-1.3,1.64-3.14,2.45-5.51,2.45c-2.39,0-4.24-0.82-5.55-2.47
					c-1.31-1.64-1.96-3.96-1.96-6.96v-4.08c0-3.01,0.65-5.34,1.95-6.97c1.3-1.64,3.14-2.45,5.52-2.45c2.38,0,4.22,0.82,5.53,2.47
					c1.31,1.64,1.96,3.97,1.96,6.97V445.2z M714.63,440.46c0-1.6-0.2-2.8-0.6-3.59s-1.04-1.19-1.92-1.19c-0.86,0-1.48,0.37-1.87,1.1
					c-0.39,0.73-0.6,1.85-0.63,3.34v5.7c0,1.67,0.2,2.88,0.61,3.66c0.4,0.77,1.04,1.16,1.92,1.16c0.85,0,1.47-0.38,1.87-1.13
					c0.4-0.75,0.61-1.93,0.62-3.53V440.46z"/>
			</g>
			<g>
				<path class="st27" d="M679.61,238c0-0.81-0.19-1.44-0.58-1.9c-0.38-0.46-1.06-0.89-2.02-1.3c-0.96-0.41-1.85-0.82-2.67-1.24
					c-0.82-0.42-1.52-0.9-2.11-1.46c-0.59-0.55-1.04-1.19-1.36-1.92c-0.31-0.72-0.47-1.6-0.47-2.64c0-1.73,0.56-3.15,1.68-4.27
					c1.12-1.12,2.61-1.77,4.48-1.95v-3.23h2.34v3.29c1.8,0.28,3.21,1.04,4.24,2.31c1.03,1.26,1.54,2.86,1.54,4.8h-4.98
					c0-1.06-0.2-1.88-0.59-2.45c-0.39-0.57-0.95-0.86-1.68-0.86c-0.65,0-1.15,0.21-1.51,0.64c-0.36,0.42-0.54,1.01-0.54,1.76
					c0,0.76,0.21,1.36,0.62,1.8c0.41,0.44,1.08,0.87,1.99,1.27c0.91,0.4,1.78,0.82,2.59,1.26c0.81,0.43,1.51,0.93,2.1,1.48
					c0.59,0.55,1.05,1.2,1.39,1.93c0.33,0.74,0.5,1.62,0.5,2.65c0,1.75-0.53,3.17-1.6,4.28c-1.07,1.1-2.52,1.75-4.36,1.93v3.08
					h-2.35v-3.09c-2.14-0.24-3.79-1-4.93-2.29c-1.15-1.29-1.72-3-1.72-5.11h4.97c0,1.16,0.25,2.05,0.74,2.66
					c0.5,0.61,1.2,0.91,2.12,0.91c0.67,0,1.19-0.21,1.58-0.62C679.42,239.29,679.61,238.72,679.61,238z"/>
				<path class="st27" d="M702.13,224.36l-8.02,19.56h-5.25l8.04-18.33h-10.23v-3.98h15.47V224.36z"/>
				<path class="st27" d="M719.61,234.79c0,3.01-0.65,5.34-1.95,6.97c-1.3,1.63-3.14,2.45-5.51,2.45c-2.39,0-4.24-0.82-5.55-2.47
					c-1.31-1.65-1.96-3.96-1.96-6.96v-4.08c0-3.01,0.65-5.34,1.95-6.97c1.3-1.63,3.14-2.45,5.52-2.45c2.38,0,4.22,0.82,5.53,2.47
					c1.31,1.65,1.96,3.97,1.96,6.97V234.79z M714.63,230.06c0-1.6-0.2-2.8-0.6-3.59s-1.04-1.19-1.92-1.19
					c-0.86,0-1.48,0.37-1.87,1.1c-0.39,0.74-0.6,1.85-0.63,3.34v5.7c0,1.67,0.2,2.88,0.61,3.66c0.4,0.77,1.04,1.16,1.92,1.16
					c0.85,0,1.47-0.38,1.87-1.13c0.4-0.75,0.61-1.93,0.62-3.53V230.06z"/>
			</g>
			<g>
				<path d="M750.36,90.85h-8.47v23.86h-6.8V90.85h-8.31v-5.46h23.58V90.85z"/>
				<path d="M764.15,112.35c-1.38,1.84-3.25,2.76-5.6,2.76c-2.3,0-4.04-0.69-5.22-2.08c-1.18-1.39-1.77-3.39-1.77-5.99V92.92h6.53
					v14.15c0,1.87,0.87,2.8,2.62,2.8c1.5,0,2.56-0.56,3.2-1.67V92.92h6.57v21.79h-6.12L764.15,112.35z"/>
				<path d="M790.81,114.71h-6.55V83.78h6.55V114.71z"/>
				<path d="M794.01,103.61c0-2.17,0.41-4.11,1.22-5.81c0.81-1.7,1.98-3,3.51-3.92c1.52-0.91,3.31-1.37,5.37-1.37
					c3.14,0,5.61,1.01,7.42,3.03c1.81,2.02,2.71,4.77,2.71,8.24v0.24c0,3.4-0.91,6.09-2.72,8.08c-1.81,1.99-4.27,2.99-7.37,2.99
					c-2.98,0-5.38-0.93-7.19-2.79c-1.81-1.86-2.78-4.38-2.93-7.56L794.01,103.61z M800.54,104.04c0,2.01,0.3,3.49,0.91,4.43
					c0.61,0.94,1.5,1.41,2.69,1.41c2.32,0,3.51-1.86,3.56-5.58v-0.68c0-3.91-1.2-5.86-3.6-5.86c-2.18,0-3.36,1.68-3.55,5.05
					L800.54,104.04z"/>
				<path d="M816.34,103.65c0-2.2,0.35-4.15,1.05-5.84c0.7-1.69,1.7-3,3-3.92c1.31-0.92,2.82-1.38,4.55-1.38
					c2.18,0,3.89,0.77,5.11,2.3l0.23-1.89h5.93v20.96c0,1.92-0.43,3.59-1.29,5c-0.86,1.42-2.1,2.5-3.73,3.26
					c-1.63,0.76-3.51,1.14-5.66,1.14c-1.54,0-3.03-0.3-4.47-0.91c-1.44-0.6-2.54-1.39-3.3-2.36l2.73-3.99
					c1.21,1.49,2.82,2.23,4.8,2.23c2.89,0,4.34-1.54,4.34-4.63v-0.68c-1.25,1.44-2.84,2.15-4.75,2.15c-2.56,0-4.62-1.02-6.2-3.05
					c-1.58-2.03-2.36-4.75-2.36-8.16V103.65z M822.89,104.08c0,1.79,0.32,3.2,0.97,4.24c0.65,1.04,1.55,1.56,2.71,1.56
					c1.41,0,2.43-0.49,3.08-1.47v-9.16c-0.63-0.99-1.65-1.49-3.04-1.49c-1.16,0-2.07,0.54-2.73,1.62
					C823.22,100.46,822.89,102.02,822.89,104.08z"/>
				<path d="M839.11,103.61c0-2.17,0.41-4.11,1.22-5.81c0.81-1.7,1.98-3,3.51-3.92c1.52-0.91,3.31-1.37,5.37-1.37
					c3.14,0,5.61,1.01,7.42,3.03c1.81,2.02,2.71,4.77,2.71,8.24v0.24c0,3.4-0.91,6.09-2.72,8.08c-1.81,1.99-4.27,2.99-7.37,2.99
					c-2.98,0-5.38-0.93-7.19-2.79c-1.81-1.86-2.78-4.38-2.93-7.56L839.11,103.61z M845.64,104.04c0,2.01,0.3,3.49,0.91,4.43
					c0.61,0.94,1.5,1.41,2.69,1.41c2.32,0,3.51-1.86,3.56-5.58v-0.68c0-3.91-1.2-5.86-3.6-5.86c-2.18,0-3.36,1.68-3.55,5.05
					L845.64,104.04z"/>
			</g>
		</g>
		<g>
			<ellipse class="st17" cx="464.87" cy="393.15" rx="12.51" ry="13"/>
			<text transform="matrix(-0.9623 0 0 1 470.5043 398.4772)" class="st42 st44 st45">1</text>
		</g>
		<g>
			<path class="st28" d="M921.63,485.45c-21.76-12.02-27.29,14.13-18.82,35.79c8.46,21.66,51.87,94.5,54.14,123.38
				c0.88,11.2,2.89,9.97,4.61,2.12C970.13,607.58,951.59,501.99,921.63,485.45z"/>
			<g>
				<path class="st8" d="M967.71,386.23c24.95-23.35,40.55,9.33,36.24,40.86c-4.31,31.53-38.59,142.69-32.41,181.66
					c2.39,15.1-0.65,14.17-5.42,4.38C942.35,564.3,933.36,418.36,967.71,386.23z"/>
				<path class="st5" d="M972.06,619.57c-0.53,1.45-1.72,0.73-3.31-1.68c-26.01-90.03,14.51-224.53,14.63-224.97
					c0.22-0.74,0.98-1.16,1.69-0.93c0.71,0.23,1.11,1.02,0.89,1.76C985.83,394.18,944.77,530.53,972.06,619.57z"/>
			</g>
			<g>
				<path class="st6" d="M1022.21,461.03c24.18-10.94,27.97,17.44,17.21,39.81c-10.76,22.37-62.92,96.31-67.65,126.93
					c-1.84,11.87-3.88,10.39-5.09,1.86C960.67,587.11,988.92,476.08,1022.21,461.03z"/>
				<path class="st7" d="M969.56,635.96c-0.74,0.94-1.46,0.1-2.06-2.11c2.19-73.79,64.58-163.5,64.78-163.79
					c0.34-0.49,1.01-0.61,1.48-0.25c0.48,0.35,0.59,1.04,0.24,1.54C1033.8,471.64,970.56,562.58,969.56,635.96z"/>
			</g>
			<g>
				<polygon class="st29" points="988.16,619.63 941.71,619.63 929.59,631 939.49,670.66 964.94,670.66 990.38,670.66 1000.29,631 
									"/>
				<path class="st29" d="M1000.29,604.87h-70.7c-2.11,0-3.85,1.8-3.85,4v18.14c0,2.2,1.73,4,3.85,4h70.7c2.11,0,3.84-1.8,3.84-4
					v-18.14C1004.14,606.67,1002.41,604.87,1000.29,604.87z"/>
				<polygon class="st16" points="929.59,631 931.62,639.15 998.25,639.15 1000.29,631 				"/>
			</g>
		</g>
	</g>
	<g>
		<g>
			<path class="st30" d="M299.36,358.32c7.7,3.93,18.89,5.13,22.81,1.36c3.92-3.78,1.74-8.76-0.15-8.91
				C320.14,350.62,290.36,349.41,299.36,358.32z"/>
			<path class="st31" d="M409.1,648.44c-1.85,2.04-6.41,3.82-12.37,5.02c-5.96,1.21-12.66,3.1-16.29,4.08
				c-4.17,1.13-5.01,4.04-4.36,7.95c0.27,1.64-1.12,4.18,0.72,5.69l55.37,0.08c2.03,0,2.74-4.01,2.78-6.41
				c0.04-2.4,0.17-10.37,0.25-15.18c0.08-4.8-2.63-5.39-5.7-5.45c-3.07-0.05-13.07-0.23-14.88-0.26
				C412.8,643.92,412.02,645.6,409.1,648.44z"/>
			<path class="st19" d="M404.49,651.22c-0.61,0.26-1.25,0.51-1.94,0.75l2.69,5.3c0.26,0.52,0.89,0.72,1.39,0.45
				c0.5-0.28,0.69-0.92,0.43-1.44L404.49,651.22L404.49,651.22z M400.18,652.73l2.3,4.54c0.26,0.52,0.07,1.17-0.43,1.44
				c-0.5,0.27-1.12,0.07-1.39-0.45l-2.53-4.99C398.84,653.1,399.52,652.92,400.18,652.73L400.18,652.73z M395.67,653.84
				c-0.69,0.16-1.38,0.32-2.07,0.49l2.49,4.91c0.26,0.52,0.89,0.72,1.39,0.45c0.5-0.27,0.69-0.92,0.43-1.44L395.67,653.84
				L395.67,653.84z M391.16,654.95c-0.69,0.18-1.37,0.36-2.04,0.55l2.4,4.72c0.26,0.52,0.89,0.72,1.39,0.45
				c0.5-0.27,0.7-0.92,0.43-1.44L391.16,654.95z"/>
			<path class="st30" d="M307.36,230.62c7.7-3.93,18.89-5.13,22.81-1.36c3.92,3.77,1.74,8.76-0.15,8.91
				C328.13,238.32,298.35,239.53,307.36,230.62z"/>
			<path class="st32" d="M434.15,289.21c-11.14-5.09-46.84-3.86-56.08-8.58c-3.07-1.57-44.41-49.75-46.01-50.56
				c-1.6-0.81-8.54,9.87-9.64,12.54c0,0,29.93,65.36,46.75,71.53c16.82,6.17,43.03,8.34,46.42,6.31
				C430.21,311.63,445.28,294.3,434.15,289.21z"/>
			<path class="st33" d="M422.77,390.5c0,0,23.07,7.65,21.26,28.95c-3.43,40.42-8.52,101.72-9.28,117.65
				c-1.17,24.31-2.22,107.07-2.87,110.26c0,0-0.33,1.59-1.82,2.21c-1.45,0.6-16.25,2.18-17.16-2.52
				c-2.98-15.36-11.64-92-12.99-103.95c-1.35-11.95-14.43-113.88-14.43-113.88s-1.25-23.19,3.15-30.2
				C396.09,387.12,412.18,388.91,422.77,390.5z"/>
			<path class="st29" d="M419.41,402.53c0.02-1,0.82-1.8,1.8-1.79c0.97,0.02,1.75,0.85,1.73,1.85c-0.01,0.38-2.27,131.6-2.72,140.02
				c-0.44,8.4,3.65,106.25,3.67,106.54c0.05,1-0.71,1.85-1.68,1.9c-0.97,0.05-1.8-0.73-1.84-1.73c-0.01-0.29-4.12-98.42-3.67-106.92
				C417.14,533.92,419.4,402.9,419.41,402.53z"/>
			<path class="st30" d="M410.26,231.28L410.26,231.28c-6.64,2.33-10.24,9.89-8,16.79l8.31,25.57c2.25,6.9,9.52,10.64,16.16,8.31
				l0,0c6.64-2.33,10.24-9.89,8-16.79l-8.32-25.57C424.17,232.69,416.9,228.95,410.26,231.28z"/>
			<path class="st34" d="M403.11,265.47c0,0,20.52-4.9,24.8-5.62c4.28-0.71,10.05-0.16,10.9,0.07c0.85,0.23,1,1.42,1.08,2.08
				c0.08,0.66-1.9,7.2-1.93,7.83c-0.04,0.63,14.05,24.21,12.36,45.24c-0.55,6.87-10.1,26.34-9.42,42.21
				c1.4,32.68,13.01,62.26,12.73,64.02c-3.77,23.83-56.93,13.07-70.08,1.42c0,0-3.85-12.95-3.07-16.66
				c0.36-1.75-1.92-25.23,0.34-51.17c1.06-12.22,3.13-24.98,6.96-36.28c5.25-15.51,9.22-26.98,9.8-28.07
				c1.89-3.58,6.44-9.93,6.53-10.93c0.09-1-4.56-7.3-5-8.14C398.65,270.62,401.95,266.18,403.11,265.47z"/>
			<path class="st35" d="M328.07,357.17l-1.9-7.16c0,0-0.71-0.94-2.41-1.31c-1.71-0.37-4.23-0.53-5.3,1.27
				c-1.06,1.8-4.17,12.16-3.27,13.78c0.9,1.61,3.99,4.3,7.62,3.33C326.43,366.12,328.07,357.17,328.07,357.17z"/>
			<path class="st36" d="M418.76,297.04c-12.47,0.35-40.4,54.28-43.81,56.1c-3.42,1.82-50.09-2.3-52.08-2.33
				c-1.99-0.03-4.1,14.25-3.99,17.49c0,0,39.49,18.05,59.37,15.94c19.88-2.11,53.59-51.97,56.08-55.72
				C445.08,312.32,433.54,296.62,418.76,297.04z"/>
			<path class="st37" d="M417.21,242.27c-1.47,16.38-15.22,9.91-15.14,16.87c-0.07,0.01-0.13,0.02-0.21,0.02
				c-11.76,1.32-13.1-4.29-13.24-5.58c-0.13-1.29-0.57-7.9-0.87-8.34c-0.3-0.44-3.09-0.12-3.26-1.78
				c-0.17-1.66,0.53-11.38,2.87-23.7c2.35-12.32,13.09-18.56,13.09-18.56c20.24,1.65,13.13,29.18,17.06,27.27
				c3.94-1.91,7.47,1.05,6.2,6.22C421.93,241.95,429.52,248.88,417.21,242.27z"/>
			<path class="st16" d="M409.79,228.65c-0.01,0-7.64-2.51-4.32-14.73c0,0-11.53,2.24-16.36,0.27c-4.83-1.97-7.3-19.03-2.19-24.99
				c5.1-5.96,3.84,2.85,3.84,2.85s21.7-8.5,30.45-8.09c8.75,0.41,14.89,15.83,14.83,21.61c0,0,1.78-4.19,4.63-3.96
				c2.85,0.22-1.43,6.09-1.43,6.09s4.72,2.95,5.39,6.94c0.65,3.87-12.07,21.27-16.22,30.02l-0.12,0.29
				c-0.91,2.17-3.31,3.98-5.05,2.38c-2.04-2.01-3.63-4.79-3.2-8.48c0,0,4.14-8.13,0.21-10.16c0,0-2.61-2.53-5.53,3.18
				c0,0-0.75,2.99-0.5,5.72c0.25,2.72,1.69,9.32-1.65,18.66c-3.34,9.34-12.95,7.83-16.32,8.2c-3.36,0.38-7.41-0.74-7.79-4.31
				c-0.37-3.57-1.21-11.64-1.34-12.86c-0.13-1.22,0.3-2.01,0.63-2.03c0,0,5.59-0.32,9.64-0.34c4.04-0.02,6.95,0.24,9.15-2.17
				c2.21-2.41,3.89-4.37,4.02-8.94C410.62,231.91,410.29,230.15,409.79,228.65z"/>
			<g>
				<path class="st38" d="M332.59,276.36c0,0-0.94,0.99-0.71,1.84c0.23,0.85,2.2,2.02,3.94,2.77c1.74,0.75,3.88,1.59,3.88,1.59
					s2.07,3.71,3.6,4.67c1.53,0.97,2.27,1.7,2.36,1.4c0.1-0.3-0.9-8.74-2.08-9.74C342.39,277.9,332.59,276.36,332.59,276.36z"/>
				<path class="st37" d="M334.55,286.39c0,0,4.29,4.88,5.28,5.81c1,0.93,2.67,1.3,5.36,2.23c2.69,0.93,7.95,2.59,8.93,3.41
					c0.98,0.81,3.89,4.71,3.89,4.71l6.36-7.11c0,0-6.09-4.86-7.19-6.35c-1.1-1.49-7.9-10.67-9.35-12.07
					c-1.45-1.39-14.86-5.26-15.56-5.23c-0.7,0.03-0.69,2.12,1.42,3.34c2.12,1.22,7.1,3.06,7.1,3.06s2.55,5.97,3.15,6.9
					c0,0-1.8,1.54-2.34,1.9c-0.54,0.36-3.54-1.72-4.27-1.92C336.59,284.85,334.6,285.58,334.55,286.39z"/>
				<path class="st17" d="M371.26,299.68l-3.53-4.41c0,0-1.06-1.46-2.37-2.39c-1.31-0.94-3.22-2.01-3.67-2.16
					c-0.46-0.15-2.45-0.18-4.19,2.06c-1.75,2.24-5.07,6.05-4.88,8.35c0.19,2.3,5.41,6.2,5.85,6.7
					C358.9,308.33,371.26,299.68,371.26,299.68z"/>
				<path class="st37" d="M334.55,286.38c0,0,4.28,4.88,5.28,5.81c0.78,0.73,1.99,1.12,3.78,1.7l-0.74-7.91
					c-0.49,0.41-1.02,0.83-1.27,1c-0.54,0.36-3.54-1.72-4.27-1.93C336.59,284.85,334.6,285.58,334.55,286.38z"/>
				<g>
					<g>
						<rect x="315.56" y="286.75" class="st18" width="64.03" height="68.82"/>
						<rect x="278.5" y="286.75" class="st39" width="48.02" height="68.82"/>
						<rect x="297.54" y="286.75" class="st19" width="9.94" height="23.99"/>
						<rect x="297.54" y="318.83" class="st19" width="9.94" height="10.42"/>
					</g>
					<g>
						<rect x="292.46" y="231.27" class="st18" width="51.61" height="55.47"/>
						<rect x="335.25" y="231.27" class="st39" width="38.71" height="55.47"/>
						<rect x="350.6" y="231.27" class="st19" width="8.01" height="19.34"/>
						<rect x="350.6" y="257.14" class="st19" width="8.01" height="8.4"/>
					</g>
				</g>
			</g>
		</g>
		<g>
			<g>
				<path class="st30" d="M654.51,236.31c2.15-0.54,5.24,2.5,4.8,5.9c-0.5,3.87-5.76,6.73-6.66,4.93
					C652.35,246.56,652.44,236.83,654.51,236.31z"/>
				<path class="st37" d="M662.38,222.67c-5.37,6.57-13.59,12.97-13.59,12.97l-9.48,19.87l9.64,4.6l0.95-6.57
					c0,0,5.48-1.99,6.91-2.81c0.92-0.53,3.26-3.08,4.24-4.82c1.79-3.19-0.8-4.12-1.55-3.49c-1.26,1.07-4.35,2.72-4.35,2.72
					s-2.03-2.46-1.48-5.17C654.22,237.27,667.36,225.05,662.38,222.67z"/>
			</g>
			<path class="st40" d="M654.78,403.74l-40.26,7.89c-1.41,0.28-2.35,1.7-2.09,3.18l0,0c0.27,1.47,1.64,2.44,3.05,2.17l40.26-7.89
				c1.41-0.28,2.35-1.71,2.09-3.18l0,0C657.57,404.43,656.19,403.46,654.78,403.74z"/>
			<path class="st37" d="M614.65,409.97c2.49,0,6.68-3.23,8.93-4.72c0,0,6.97,1.25,5.81,2.69c-1.16,1.44-5.08,2.27-5.08,2.27
				s0.58,3.74,6.1,3.44c5.52-0.3,9.01,0.22,8.06,1.95c-0.94,1.72-3.85,1.92-3.85,1.92s-1.89,2.69-4.07,3.44
				c-2.18,0.75-2.4,0.84-2.4,0.84s-1.02,1.73-5.59,1.89c-4.58,0.16-14.67-4.22-14.75-5.95
				C607.74,416.02,614.65,409.97,614.65,409.97z"/>
			<path class="st14" d="M553.25,311.01c16.34-3.24,37.39-0.06,52.15-8.82c10.25-6.08,31.74-43.2,34.39-52.61
				c0.22-0.8,12.94,6.3,11.6,9.37c-5.34,12.21-18.19,46.99-36.13,62.07c-22.96,19.31-60.06,18.06-60.57,18.27
				c-2.76,1.12,9.88-14.04,8.5-16.11C561.81,321.1,549.18,313.85,553.25,311.01z"/>
			<path class="st38" d="M569.5,642.81l10.41,2.24c0,0-0.73,5.03,0.85,7.5c1.58,2.47-8.54,6.51-8.54,6.51l-4.79-6.27l-0.28-5
				L569.5,642.81z"/>
			<path class="st33" d="M588.95,425.05l7.89,14.88c0,0-7.76,90.02-9.51,100.39c-1.71,10.16-9.39,74.72-6.64,104.73
				c0.21,2.23,0.56,3.07-0.97,3.57l-12.06,0.37c-1.79-0.02-1.24-1.2-1.22-3.85c0.07-13.28-4.67-65.22-5.02-72.8
				c-0.37-8.2,1.49-16.05,1.77-18.46c0.28-2.41-12.28-109.71-10.91-126.18C553.66,411.22,588.95,425.05,588.95,425.05z"/>
			<path class="st15" d="M572.72,648.83l-1.47,0.04c-0.85-15.13-2-36.53-2.47-49.64c-0.56-15.49,0.22-32.01,0.69-41.92
				c0.19-4.1,0.33-7.07,0.3-8.31c-0.11-4.3-3.35-107.66-3.36-107.96c-0.01-0.42,0.31-0.77,0.71-0.79c0.41-0.01,0.74,0.32,0.76,0.74
				c0.01,0.3,3.25,103.56,3.36,107.97c0.03,1.32-0.11,4.3-0.3,8.43c-0.47,9.89-1.25,26.38-0.69,41.79
				C570.72,612.25,571.87,633.69,572.72,648.83z"/>
			<path class="st38" d="M574.51,277.72l3.39,9.71c0,0-5.29,2.03-4.61,8.55c0.68,6.52-4.65,7.5-4.65,7.5s-10.64-11.63-10.53-12.83
				C558.21,289.46,556.62,277.67,574.51,277.72z"/>
			<path class="st37" d="M578.51,287.2c13.35-5.35,1.38-28.8-3.01-36.37c-5.55-9.59-16.38-11.44-16.38-11.44
				c-5.82,2.73-13.3,6.33-14.06,10.41C542.32,264.4,553.1,297.39,578.51,287.2z"/>
			<path class="st15" d="M595.73,321.07c3.99,14.66-7.3,38.64-4.96,58.15c4.6,38.19,21.14,80.82,20.93,83.86
				c-0.3,4.17-48.83,9.51-72.31,1.39c0,0-2.66-0.99-1.56-3.59c1.09-2.6,15.47-63.71,11.37-105.74c-1.92-19.7-8.77-32.86-9.72-40
				c-1.08-8.09,0.42-10.76,2.59-14c6.65-9.99,19.66-20.14,25.86-7.69C575.92,309.5,594.21,315.48,595.73,321.07z"/>
			<path class="st14" d="M569.68,308.43c9.3,30.2,8.72,73.68,8.72,73.68l36.03,28.99l-3.49,12.08c0,0-50.85-20.53-54.92-41.07
				c-4.07-20.53-8.43-66.43-8.43-66.43L569.68,308.43z"/>
			<path class="st14" d="M606.53,668h-38.44c0,0-2.28-0.13-2.28-2.79c0-2.66,0-7.54,0-9.25c0-1.71,2.06-3.17,2.06-3.17
				s5.6,3.23,15.17-0.06c0,0,1.4-0.57,4.2,0.19c2.8,0.76,22.39,8.62,22.39,8.62s2.25,1.17,2.25,3.3S610.91,667.91,606.53,668z"/>
			<path class="st19" d="M611.06,667.37h-44.9c-0.45,0-0.82,0.38-0.82,0.85v1.58c0,0.47,0.37,0.85,0.82,0.85h44.9
				c0.45,0,0.82-0.38,0.82-0.85v-1.58C611.88,667.75,611.51,667.37,611.06,667.37z"/>
			<path class="st16" d="M558.59,249.2c3.02,3.09,8.68,4.65,16.38,0.76c0.18,0.28,0.36,0.57,0.53,0.87
				c1.53,2.64,2.89,5.15,4.08,7.43c0,0,8.95-11.89,7.32-22.65c-1.63-10.76-24.72-12.64-29.28-11.82c-4.56,0.82-4.6,6.33-4.6,6.33
				s-10-2.21-17.8,3.38c-7.8,5.58-9.23,22.34-7.54,30.63c1.68,8.28,17.05,21.2,8.41,42.88c-8.64,21.67,3.99,37.71,23.45,33.95
				c19.47-3.76,28.97-31.85,7.14-57.2c0,0-9.96-9.59-8.51-15.81C559.6,261.73,563.22,259.13,558.59,249.2z"/>
			<path class="st30" d="M646.59,248.82c1.47,1.25,3.73,2.28,6.16,2.6c0.81,0.11,1.64,0.13,2.47,0.06
				c-0.76,0.32-1.64,0.67-2.47,0.99c-1.52,0.59-2.85,1.07-2.85,1.07l-0.28,1.96c-0.85-0.81-1.91-1.64-3.02-2.41
				c-1.67-1.16-3.45-2.2-4.76-2.85l2.81-5.89c0.04,0.83,0.15,1.64,0.37,2.33C645.24,247.41,645.8,248.15,646.59,248.82z"/>
			<path class="st41" d="M568.1,407.43c-11.49-6.28-15.93-11.81-17.93-24.08c-0.15-0.9-0.28-1.85-0.4-2.83c0,0,0,0,0-0.01
				c0.33-8.79,0.22-17.42-0.56-25.37c-0.42-4.35-1.09-8.38-1.88-12.1c-0.19-0.9-0.39-1.79-0.6-2.66c1.13,0.37,2.32,0.66,3.56,0.85
				c0.05,0.49,0.11,0.97,0.17,1.46c1.58,13.71,3.61,29.52,5.57,39.42c0.15,0.74,0.35,1.49,0.62,2.23c1.52,4.25,4.89,8.46,9.24,12.46
				c9.14,8.39,22.62,15.84,32.46,20.66c0.72,2.77,1.45,5.49,2.18,8.12c-6.16-3.61-14.15-8.21-22.22-12.65
				c-2.97-1.63-5.95-3.24-8.85-4.77C568.99,407.92,568.54,407.67,568.1,407.43z"/>
		</g>
	</g>
</g>
</svg>
