<?xml version="1.0" encoding="utf-8"?>
<!-- Generator: Adobe Illustrator 23.0.5, SVG Export Plug-In . SVG Version: 6.00 Build 0)  -->
<svg version="1.1" id="Layer_1" xmlns="http://www.w3.org/2000/svg" xmlns:xlink="http://www.w3.org/1999/xlink" x="0px" y="0px"
	 viewBox="0 0 365 74" style="enable-background:new 0 0 365 74;" xml:space="preserve">
<style type="text/css">
	.st0{fill:#010234;}
	.st1{filter:url(#Adobe_OpacityMaskFilter);}
	.st2{fill:#FFFFFF;}
	.st3{fill:url(#SVGID_2_);}
	.st4{mask:url(#SVGID_1_);fill:#FFC233;}
	.st5{filter:url(#Adobe_OpacityMaskFilter_1_);}
	.st6{fill:url(#SVGID_4_);}
	.st7{fill:url(#SVGID_5_);}
	.st8{fill:url(#SVGID_6_);}
	.st9{opacity:0.37;mask:url(#SVGID_3_);}
	.st10{opacity:0.37;}
	.st11{clip-path:url(#SVGID_8_);}
	.st12{opacity:0.7;fill:url(#SVGID_9_);}
	.st13{opacity:0.7;fill:url(#SVGID_10_);}
	.st14{opacity:0.29;fill:#FFFFFF;}
	.st15{opacity:0.12;}
	.st16{fill:#FFC233;}
	.st17{fill:url(#SVGID_11_);}
	.st18{fill:url(#SVGID_12_);}
	.st19{fill:url(#SVGID_13_);}
	.st20{fill:url(#SVGID_14_);}
	.st21{filter:url(#Adobe_OpacityMaskFilter_2_);}
	.st22{fill:url(#SVGID_18_);}
	.st23{mask:url(#SVGID_17_);fill:#FFC233;}
	.st24{fill:url(#SVGID_19_);}
	.st25{fill:#474764;}
	.st26{fill:none;stroke:#474764;stroke-width:3;stroke-linecap:round;stroke-linejoin:round;stroke-miterlimit:10;}
	.st27{fill:none;stroke:#FFC233;stroke-width:0.5;stroke-miterlimit:10;}
	.st28{fill:#669933;}
	.st29{fill:#111A2D;}
	.st30{fill:none;stroke:#FFCC33;stroke-width:0.5;stroke-miterlimit:10;}
	.st31{fill:#B6B6B6;}
	.st32{fill:#F2F2F2;}
	.st33{fill:#BFD2E1;}
	.st34{fill:url(#SVGID_22_);}
	.st35{fill:#333366;}
	.st36{fill:url(#SVGID_23_);}
	.st37{fill:url(#SVGID_24_);}
	.st38{fill:#000033;}
	.st39{fill:#666666;}
	.st40{fill:url(#SVGID_25_);}
	.st41{fill:url(#SVGID_26_);}
	.st42{fill:url(#SVGID_27_);}
	.st43{fill:url(#SVGID_28_);}
	.st44{fill:url(#SVGID_29_);}
	.st45{fill:url(#SVGID_30_);}
	.st46{fill:url(#SVGID_31_);}
	.st47{fill:url(#SVGID_32_);}
	.st48{fill:url(#SVGID_33_);}
	.st49{fill:url(#SVGID_34_);}
	.st50{fill:url(#SVGID_35_);}
	.st51{fill:#666699;}
	.st52{fill:#D1C6C6;}
	.st53{fill:url(#SVGID_36_);}
	.st54{fill:url(#SVGID_37_);}
	.st55{fill:url(#SVGID_38_);}
	.st56{fill:url(#SVGID_39_);}
	.st57{fill:#BD0000;}
	.st58{fill:url(#SVGID_40_);}
	.st59{fill:url(#SVGID_41_);}
	.st60{fill:#E50000;}
	.st61{fill:url(#SVGID_42_);}
	.st62{fill:url(#SVGID_43_);}
	.st63{fill:url(#SVGID_44_);}
	.st64{fill:url(#SVGID_45_);}
	.st65{fill:#DD5600;}
	.st66{fill:url(#SVGID_46_);}
	.st67{fill:#D1DFEA;}
	.st68{fill:url(#SVGID_47_);}
	.st69{fill:#191919;}
	.st70{fill:url(#SVGID_48_);}
	.st71{fill:url(#SVGID_49_);}
	.st72{fill:url(#SVGID_50_);}
	.st73{fill:#46676C;}
	.st74{fill:url(#SVGID_51_);}
	.st75{fill:url(#SVGID_52_);}
	.st76{fill:url(#SVGID_53_);}
	.st77{fill:url(#SVGID_54_);}
	.st78{fill:url(#SVGID_55_);}
	.st79{fill:none;stroke:#FFC233;stroke-width:2;stroke-miterlimit:10;}
	.st80{fill:url(#SVGID_56_);}
	.st81{fill:#98B1C7;}
	.st82{fill:url(#SVGID_57_);}
	.st83{fill:url(#SVGID_58_);}
	.st84{fill:#333333;}
	.st85{fill:url(#SVGID_59_);}
	.st86{fill:url(#SVGID_60_);}
	.st87{fill:url(#SVGID_61_);}
	.st88{fill:url(#SVGID_62_);}
	.st89{fill:url(#SVGID_63_);}
	.st90{fill:url(#SVGID_64_);}
	.st91{fill:url(#SVGID_65_);}
	.st92{fill:url(#SVGID_66_);}
	.st93{fill:url(#SVGID_67_);}
	.st94{fill:url(#SVGID_68_);}
	.st95{fill:url(#SVGID_69_);}
	.st96{fill:#1D2C2C;}
	.st97{fill:#ECEBF3;}
	.st98{fill:url(#SVGID_70_);}
	.st99{fill:#0074A6;}
	.st100{fill:url(#SVGID_71_);}
	.st101{fill:url(#SVGID_72_);}
	.st102{fill:url(#SVGID_73_);}
	.st103{fill:url(#SVGID_74_);}
	.st104{fill:url(#SVGID_75_);}
	.st105{fill:#80979A;}
	.st106{fill:#FFBD95;}
	.st107{fill:#FFA47C;}
	.st108{fill:#00233F;}
	.st109{fill:#B8B3B3;}
	.st110{fill:#002D56;}
	.st111{fill:#1C5C92;}
	.st112{fill:#004877;}
	.st113{fill:#303030;}
	.st114{fill:#5A5A5A;}
	.st115{fill:#8E8E8E;}
	.st116{fill:#757575;}
	.st117{fill:#7F7F7F;}
	.st118{fill:#8D3B26;}
	.st119{fill:#00152C;}
	.st120{fill:#3D3D3D;}
	.st121{fill:url(#SVGID_76_);}
	.st122{fill:url(#SVGID_77_);}
	.st123{fill:url(#SVGID_78_);}
	.st124{fill:#375B60;}
	.st125{fill:url(#SVGID_79_);}
	.st126{fill:url(#SVGID_80_);}
	.st127{fill:url(#SVGID_81_);}
	.st128{fill:url(#SVGID_82_);}
	.st129{fill:url(#SVGID_83_);}
	.st130{fill:url(#SVGID_84_);}
	.st131{fill:url(#SVGID_85_);}
	.st132{fill:url(#SVGID_86_);}
	.st133{fill:url(#SVGID_87_);}
	.st134{fill:url(#SVGID_88_);}
	.st135{fill:url(#SVGID_89_);}
	.st136{fill:#668186;}
	.st137{fill:url(#SVGID_90_);}
	.st138{fill:url(#SVGID_91_);}
	.st139{fill:url(#SVGID_92_);}
	.st140{fill:url(#SVGID_93_);}
	.st141{fill:url(#SVGID_94_);}
	.st142{fill:url(#SVGID_95_);}
	.st143{fill:url(#SVGID_96_);}
	.st144{fill:url(#SVGID_97_);}
	.st145{fill:url(#SVGID_98_);}
	.st146{fill:url(#SVGID_99_);}
	.st147{fill:url(#SVGID_100_);}
	.st148{fill:url(#SVGID_101_);}
	.st149{fill:url(#SVGID_102_);}
	.st150{fill:url(#SVGID_103_);}
	.st151{fill:url(#SVGID_104_);}
	.st152{fill:url(#SVGID_105_);}
	.st153{fill:#686868;}
	.st154{fill:#B4B4B4;}
	.st155{fill:#D60000;}
	.st156{fill:#9A9393;}
	.st157{fill:#A39D9D;}
	.st158{fill:#D7D4D4;}
	.st159{fill:#CFCCCC;}
	.st160{fill:#596273;}
	.st161{fill:#7E908D;}
	.st162{opacity:0.3;clip-path:url(#SVGID_107_);}
	.st163{fill:#0C406F;}
	.st164{fill:url(#SVGID_108_);}
	.st165{fill:#B8D1FF;}
	.st166{fill:#E0F2FF;}
	.st167{fill:#CEE0FF;}
	.st168{fill:#003D66;}
	.st169{fill:#0B5089;}
	.st170{fill:#3B1B1D;}
	.st171{fill:#722C1D;}
	.st172{fill:#70655E;}
	.st173{fill:#524843;}
	.st174{fill:#B4ABA6;}
	.st175{fill:#DAD3CF;}
	.st176{fill:url(#SVGID_109_);}
	.st177{fill:url(#SVGID_110_);}
	.st178{fill:url(#SVGID_111_);}
	.st179{fill:url(#SVGID_112_);}
	.st180{fill:url(#SVGID_113_);}
	.st181{fill:url(#SVGID_114_);}
	.st182{fill:url(#SVGID_115_);}
	.st183{fill:url(#SVGID_116_);}
	.st184{fill:url(#SVGID_117_);}
	.st185{fill:url(#SVGID_118_);}
	.st186{fill:url(#SVGID_119_);}
	.st187{fill:url(#SVGID_120_);}
	.st188{fill:url(#SVGID_121_);}
	.st189{fill:url(#SVGID_122_);}
	.st190{fill:url(#SVGID_123_);}
	.st191{fill:url(#SVGID_124_);}
	.st192{fill:url(#SVGID_125_);}
	.st193{fill:url(#SVGID_126_);}
	.st194{fill:url(#SVGID_127_);}
	.st195{fill:url(#SVGID_128_);}
	.st196{fill:#99FF66;stroke:#FFC233;stroke-width:2;stroke-miterlimit:10;}
	.st197{opacity:0.38;fill:#FFFFFF;}
	.st198{fill:#F7BE89;}
	.st199{fill:#FFD7B6;}
	.st200{fill:#9999CC;}
	.st201{fill:#161616;}
	.st202{fill:#F4AA6E;}
	.st203{fill:#CC9999;}
	.st204{filter:url(#Adobe_OpacityMaskFilter_3_);}
	.st205{fill:url(#SVGID_130_);}
	.st206{fill:url(#SVGID_131_);}
	.st207{fill:url(#SVGID_132_);}
	.st208{mask:url(#SVGID_129_);}
	.st209{clip-path:url(#SVGID_134_);}
	.st210{opacity:0.7;fill:url(#SVGID_135_);}
	.st211{opacity:0.7;fill:url(#SVGID_136_);}
	.st212{fill:url(#SVGID_137_);}
	.st213{fill:url(#SVGID_138_);}
	.st214{fill:url(#SVGID_139_);}
	.st215{fill:url(#SVGID_140_);}
	.st216{fill:none;stroke:#FFC233;stroke-miterlimit:10;}
	.st217{fill:url(#SVGID_141_);}
	.st218{fill:#3E479B;}
	.st219{fill:#599AF2;}
	.st220{opacity:0.39;fill:#FFFFFF;}
	.st221{fill:url(#SVGID_142_);}
	.st222{opacity:0.22;}
	.st223{fill:url(#SVGID_143_);}
	.st224{opacity:0.36;fill:#599AF2;}
	.st225{fill:#4C65BA;}
	.st226{opacity:0.32;fill:#599AF2;}
	.st227{opacity:0.43;fill:#FFFFFF;}
	.st228{fill:url(#SVGID_144_);}
	.st229{opacity:0.36;}
	.st230{enable-background:new    ;}
	.st231{fill:#323233;}
	.st232{fill:#545456;}
	.st233{fill:#424243;}
	.st234{opacity:0.4;fill:#545456;}
	.st235{fill:#25292D;}
	.st236{fill:#B78020;}
	.st237{fill:#FFCA46;}
	.st238{fill:#F3F1F2;}
	.st239{fill:#EF5B5B;}
	.st240{fill:#ECECEC;}
	.st241{fill:#FF9727;}
	.st242{opacity:0.7;fill:#FFC408;}
	.st243{fill:#FFC408;}
	.st244{fill:#FFEB98;}
	.st245{opacity:0.6;fill:#FFEB98;}
	.st246{opacity:0.5;fill:#FFEB98;}
	.st247{fill:#F9F7F8;}
	.st248{fill:url(#SVGID_145_);}
	.st249{fill:#EDB53A;}
	.st250{fill:#E6EDED;}
	.st251{fill:url(#Cylinder_body_1_);}
	.st252{fill:url(#SVGID_146_);}
	.st253{fill:url(#Cylinder_body_2_);}
	.st254{fill:url(#SVGID_147_);}
	.st255{fill:url(#Cylinder_body_3_);}
	.st256{fill:url(#SVGID_148_);}
	.st257{fill:url(#Cylinder_body_4_);}
	.st258{fill:url(#SVGID_149_);}
	.st259{fill:url(#Cylinder_body_5_);}
	.st260{fill:url(#SVGID_150_);}
	.st261{fill:url(#Cylinder_body_6_);}
	.st262{fill:#46C1FF;}
	.st263{fill:url(#Cylinder_body_7_);}
	.st264{fill:url(#Cylinder_body_8_);}
	.st265{fill:#F9665F;}
	.st266{fill:url(#Cylinder_body_9_);}
	.st267{fill:url(#SVGID_151_);}
	.st268{fill:#1A1A1A;}
	.st269{fill:#171512;}
	.st270{fill:url(#SVGID_152_);}
	.st271{opacity:0.9;fill:url(#SVGID_153_);}
	.st272{fill:url(#SVGID_154_);}
	.st273{fill:#313131;}
	.st274{opacity:0.6;fill:#313131;}
	.st275{fill:url(#SVGID_155_);}
	.st276{opacity:0.9;fill:url(#SVGID_156_);}
	.st277{fill:url(#SVGID_157_);}
	.st278{fill:url(#SVGID_158_);}
	.st279{opacity:0.2;fill:#313131;}
	.st280{fill:url(#SVGID_159_);}
	.st281{opacity:0.9;fill:url(#SVGID_160_);}
	.st282{fill:url(#SVGID_161_);}
	.st283{fill:#C9C9C9;}
	.st284{fill:#888B8C;}
	.st285{fill:url(#SVGID_162_);}
	.st286{fill:url(#SVGID_163_);}
	.st287{fill:#888888;}
	.st288{clip-path:url(#SVGID_165_);}
	.st289{fill:#9E9E9E;}
	.st290{fill:#E1E1E1;}
	.st291{fill:url(#SVGID_166_);}
	.st292{fill:#EAEAEA;}
	.st293{fill:url(#Cylinder_body_10_);}
	.st294{fill:url(#Cylinder_body_11_);}
	.st295{fill:url(#Cylinder_body_12_);}
	.st296{fill:url(#Cylinder_body_13_);}
	.st297{fill:url(#Cylinder_body_14_);}
	.st298{clip-path:url(#SVGID_168_);}
	.st299{fill:url(#SVGID_169_);}
	.st300{fill:#D4D4D4;}
	.st301{fill:url(#Cylinder_body_15_);}
	.st302{fill:url(#Cylinder_body_16_);}
	.st303{fill:url(#Cylinder_body_17_);}
	.st304{fill:url(#Cylinder_body_18_);}
	.st305{fill:url(#Cylinder_body_19_);}
	.st306{fill:#969CA5;}
	.st307{fill:#6F1818;}
	.st308{fill:#F0F3F4;}
	.st309{fill:#6D6D6D;}
	.st310{opacity:0.7;fill:#E9ECED;}
	.st311{fill:#C8CACD;}
	.st312{fill:#891D1D;}
	.st313{fill:#A9AFB5;}
</style>
<g>
	<g>
	</g>
</g>
<g>
	<g>
		<path class="st16" d="M10.14,23.23c0.71,0,1.32,0.05,1.83,0.14c0.51,0.1,0.96,0.28,1.35,0.55c0.38,0.27,0.73,0.64,1.04,1.11
			c0.31,0.47,0.62,1.08,0.94,1.85l10.02,23.12c0.13,0.29,0.35,0.43,0.67,0.43h0.58c0.32,0,0.55-0.14,0.67-0.43l10.02-23.12
			c0.32-0.77,0.63-1.39,0.94-1.85c0.31-0.47,0.65-0.83,1.04-1.11c0.39-0.27,0.83-0.46,1.32-0.55c0.5-0.1,1.1-0.14,1.81-0.14h5.15
			c1.67,0,2.79,0.38,3.37,1.13c0.58,0.76,0.87,2.05,0.87,3.88v27.65c0,0.71-0.37,1.06-1.11,1.06h-4.91c-0.71,0-1.06-0.35-1.06-1.06
			V30.74c0-0.32-0.13-0.48-0.39-0.48h-0.43c-0.32,0-0.53,0.13-0.63,0.39l-9.73,21.58c-0.39,0.87-0.78,1.6-1.18,2.19
			c-0.4,0.59-0.84,1.08-1.3,1.47c-0.47,0.39-1,0.66-1.59,0.82c-0.59,0.16-1.29,0.24-2.1,0.24h-2.31c-0.8,0-1.5-0.08-2.1-0.24
			c-0.59-0.16-1.12-0.43-1.59-0.82c-0.47-0.39-0.9-0.87-1.3-1.47c-0.4-0.59-0.79-1.32-1.18-2.19L9.13,30.64
			c-0.1-0.26-0.31-0.39-0.63-0.39H8.07c-0.26,0-0.39,0.16-0.39,0.48v25.15c0,0.71-0.35,1.06-1.06,1.06H1.71
			c-0.74,0-1.11-0.35-1.11-1.06V28.24c0-1.83,0.29-3.12,0.87-3.88c0.58-0.75,1.72-1.13,3.42-1.13H10.14z"/>
		<path class="st16" d="M82.64,30.5c2.15,0,3.97,0.19,5.44,0.55c1.48,0.37,2.66,0.95,3.54,1.73c0.88,0.79,1.52,1.8,1.9,3.03
			c0.39,1.24,0.58,2.72,0.58,4.46v6.94c0,1.73-0.19,3.22-0.58,4.46c-0.38,1.24-1.02,2.25-1.9,3.04c-0.88,0.79-2.06,1.36-3.54,1.71
			c-1.48,0.35-3.29,0.53-5.44,0.53H69.01c-2.18,0-4.01-0.18-5.47-0.53c-1.46-0.35-2.63-0.92-3.52-1.71c-0.88-0.79-1.52-1.8-1.9-3.04
			c-0.39-1.24-0.58-2.72-0.58-4.46v-6.94c0-1.73,0.19-3.22,0.58-4.46c0.39-1.24,1.02-2.25,1.9-3.03c0.88-0.79,2.05-1.36,3.52-1.73
			c1.46-0.37,3.28-0.55,5.47-0.55H82.64z M64.43,46.01c0,1.03,0.08,1.88,0.24,2.55c0.16,0.67,0.44,1.21,0.84,1.61
			c0.4,0.4,0.94,0.69,1.61,0.87c0.67,0.18,1.52,0.26,2.55,0.26h12.28c1.06,0,1.93-0.09,2.6-0.26c0.67-0.18,1.21-0.47,1.61-0.87
			c0.4-0.4,0.68-0.94,0.84-1.61c0.16-0.67,0.24-1.53,0.24-2.55v-4.58c0-0.99-0.08-1.83-0.24-2.5c-0.16-0.67-0.44-1.22-0.84-1.64
			c-0.4-0.42-0.94-0.71-1.61-0.87c-0.67-0.16-1.54-0.24-2.6-0.24H69.68c-1.03,0-1.88,0.08-2.55,0.24c-0.67,0.16-1.21,0.45-1.61,0.87
			c-0.4,0.42-0.68,0.96-0.84,1.64c-0.16,0.67-0.24,1.51-0.24,2.5V46.01z"/>
		<path class="st16" d="M102.3,30.5v-6.36c0-0.71,0.35-1.06,1.06-1.06h4.77c0.71,0,1.06,0.35,1.06,1.06v6.36h8.43
			c0.58,0,0.87,0.29,0.87,0.87v3.95c0,0.58-0.29,0.87-0.87,0.87h-8.43v11.18c0,1.35,0.27,2.34,0.82,2.96
			c0.55,0.63,1.62,0.94,3.23,0.94h4.67c0.58,0,0.87,0.29,0.87,0.87v3.95c0,0.58-0.29,0.87-0.87,0.87h-5.83
			c-1.93,0-3.52-0.18-4.77-0.53c-1.25-0.35-2.26-0.92-3.01-1.69c-0.76-0.77-1.28-1.77-1.57-2.99c-0.29-1.22-0.43-2.68-0.43-4.38
			V36.18h-4.58c-0.58,0-0.87-0.29-0.87-0.87v-3.95c0-0.58,0.29-0.87,0.87-0.87H102.3z"/>
		<path class="st16" d="M147.34,30.5c2.15,0,3.97,0.19,5.44,0.55c1.48,0.37,2.66,0.95,3.54,1.73c0.88,0.79,1.52,1.8,1.9,3.03
			c0.38,1.24,0.58,2.72,0.58,4.46v6.94c0,1.73-0.19,3.22-0.58,4.46c-0.39,1.24-1.02,2.25-1.9,3.04c-0.88,0.79-2.06,1.36-3.54,1.71
			c-1.48,0.35-3.29,0.53-5.44,0.53h-13.63c-2.18,0-4.01-0.18-5.47-0.53c-1.46-0.35-2.63-0.92-3.52-1.71
			c-0.88-0.79-1.52-1.8-1.9-3.04c-0.38-1.24-0.58-2.72-0.58-4.46v-6.94c0-1.73,0.19-3.22,0.58-4.46c0.39-1.24,1.02-2.25,1.9-3.03
			c0.88-0.79,2.05-1.36,3.52-1.73c1.46-0.37,3.28-0.55,5.47-0.55H147.34z M129.13,46.01c0,1.03,0.08,1.88,0.24,2.55
			c0.16,0.67,0.44,1.21,0.84,1.61c0.4,0.4,0.94,0.69,1.61,0.87c0.67,0.18,1.52,0.26,2.55,0.26h12.28c1.06,0,1.93-0.09,2.6-0.26
			c0.67-0.18,1.21-0.47,1.61-0.87c0.4-0.4,0.68-0.94,0.84-1.61c0.16-0.67,0.24-1.53,0.24-2.55v-4.58c0-0.99-0.08-1.83-0.24-2.5
			c-0.16-0.67-0.44-1.22-0.84-1.64c-0.4-0.42-0.94-0.71-1.61-0.87c-0.67-0.16-1.54-0.24-2.6-0.24h-12.28
			c-1.03,0-1.88,0.08-2.55,0.24c-0.67,0.16-1.21,0.45-1.61,0.87c-0.4,0.42-0.68,0.96-0.84,1.64c-0.16,0.67-0.24,1.51-0.24,2.5V46.01
			z"/>
		<path class="st16" d="M189.3,30.5c0.58,0,0.87,0.29,0.87,0.87v4.05c0,0.58-0.29,0.87-0.87,0.87h-12.81
			c-1.03,0-1.88,0.09-2.55,0.26c-0.67,0.18-1.21,0.47-1.61,0.87c-0.4,0.4-0.68,0.95-0.84,1.64c-0.16,0.69-0.24,1.53-0.24,2.53v14.31
			c0,0.71-0.35,1.06-1.06,1.06h-4.72c-0.74,0-1.11-0.35-1.11-1.06V40.28c0-1.73,0.19-3.22,0.58-4.46c0.38-1.24,1.02-2.25,1.9-3.03
			c0.88-0.79,2.06-1.36,3.52-1.73c1.46-0.37,3.28-0.55,5.47-0.55H189.3z"/>
		<path class="st16" d="M215.75,23.23c1.61,0,2.75,0.33,3.42,0.99c0.67,0.66,1.01,1.69,1.01,3.11v28.57c0,0.71-0.35,1.06-1.06,1.06
			h-4.96c-0.71,0-1.06-0.35-1.06-1.06V30.64c0-0.67-0.34-1.01-1.01-1.01h-2.75c-0.74,0-1.11-0.35-1.11-1.06v-4.29
			c0-0.71,0.37-1.06,1.11-1.06H215.75z"/>
		<path class="st16" d="M247.98,23.23c1.22,0,2.25,0.25,3.08,0.75c0.84,0.5,1.65,1.47,2.46,2.91l15.95,28.95
			c0.16,0.32,0.2,0.59,0.12,0.79c-0.08,0.21-0.31,0.31-0.7,0.31h-6.12c-0.55,0-0.92-0.21-1.11-0.63l-3.42-6.21H235.6l-3.32,6.21
			c-0.23,0.42-0.6,0.63-1.11,0.63h-6.26c-0.42,0-0.67-0.1-0.75-0.31c-0.08-0.21-0.04-0.47,0.12-0.79l15.8-28.95
			c0.8-1.45,1.59-2.42,2.36-2.91c0.77-0.5,1.67-0.75,2.7-0.75H247.98z M238.63,44.52h16.57l-7.66-14.12
			c-0.13-0.22-0.31-0.34-0.53-0.34h-0.29c-0.22,0-0.4,0.11-0.53,0.34L238.63,44.52z"/>
	</g>
	<g>
		<g>
			<g>
				<g>
					<g>
						<g>
							<g>
								<g>
									<path class="st16" d="M356.95,36.63c-6.89,1.13-19.99-1.78-24.84-4.11c1.79-0.49,5.88-1.29,8.23-0.75l10.48,2.41
										c0.84,0.02,1.78,0.01,2.66-0.05l-9.75-5.74c-2.42-1.41-24.1-13.5-45.15-7.36C294.14,17,273.92,0.85,235.47,0.85
										c-0.72,0-1.42,0.01-2.13,0.02l-4,0.04l10.78,4.6l0.14,0.01c37.88,1.41,55.89,19.5,56.06,19.68l1,1.03l1.36-0.45
										c12.82-4.22,26.32-0.58,34.63,2.71c-2.35,0.08-5.74,1.18-6.22,1.42l-3.81,1.27l2.39,2.24c6.07,5.69,21.68,7.31,28.88,7.63
										l5.4,4.19c-0.57,7.09-5.12,14.1-6.86,16.55h-27.02c1.41-2.92,2.16-6.14,2.16-9.41c0-11.91-9.69-21.6-21.6-21.6
										c-11.91,0-21.6,9.69-21.6,21.6c0,11.92,9.69,21.62,21.6,21.62c6.39,0,12.39-2.8,16.47-7.66h32.25l0.67-0.87
										c0.34-0.43,8.25-10.57,8.53-21.05l0.04-0.98L356.95,36.63z M306.63,69.44c-9.41,0-17.06-7.65-17.06-17.06
										c0-9.4,7.65-17.04,17.06-17.04c9.4,0,17.05,7.64,17.05,17.04C323.69,61.79,316.03,69.44,306.63,69.44z"/>
								</g>
							</g>
						</g>
					</g>
				</g>
			</g>
		</g>
	</g>
</g>
</svg>
